<svg width="659" height="1010" viewBox="0 0 659 1010" fill="none" xmlns="http://www.w3.org/2000/svg">
<path d="M325.636 132.135C325.636 132.135 320.556 117.915 313.566 113.125C288.266 95.7948 273.456 81.1546 276.846 79.1346C280.226 77.1146 313.336 101.105 320.476 99.095C341.416 93.225 337.445 103.325 338.545 103.345C339.645 103.365 345.846 138.745 345.846 138.745L325.636 132.135Z" fill="url(#paint0_linear)"/>
<path d="M318.616 122.895C324.056 169.215 329.487 215.525 334.927 261.845C337.107 280.385 339.356 299.225 346.646 316.775C355.866 338.955 380.806 340.715 407.206 337.845C447.076 333.505 484.456 309.735 508.236 284.265C513.356 278.785 546.136 239.185 542.876 233.195C542.856 233.155 525.197 193.595 525.187 193.595C493.607 196.415 429.086 263.285 415.616 269.685C379.346 286.935 371.567 201.455 367.467 182.395C366.037 175.755 354.557 121.685 346.227 121.895C337.007 122.125 327.786 122.345 318.576 122.575C318.586 122.665 318.606 122.785 318.616 122.895Z" fill="url(#paint1_linear)"/>
<path d="M232.097 875.965L237.156 914.595L218.836 942.735L208.956 889.985L232.097 875.965Z" fill="url(#paint2_linear)"/>
<path d="M230.486 924.705C231.866 921.885 232.536 918.835 232.066 916.125C231.786 914.485 231.106 913.015 230.696 911.425C230.286 909.835 230.176 908.045 230.986 906.335C231.276 905.725 231.696 905.125 232.276 904.705C233.306 903.955 234.666 903.905 235.656 904.315C236.646 904.725 237.357 905.495 238.017 906.275C239.527 908.035 240.957 909.905 241.767 912.115C242.567 914.325 242.696 916.935 241.626 919.435C240.586 921.855 238.557 923.935 236.637 925.975C234.337 928.425 232.126 930.965 229.586 933.215C227.846 934.755 225.936 936.165 223.876 937.225C223.176 937.585 219.937 939.335 219.437 938.395C218.797 937.185 224.636 932.575 225.566 931.585C227.546 929.475 229.276 927.165 230.486 924.705Z" fill="#0A0652"/>
<path d="M260.807 905.135C262.537 905.635 264.477 906.655 264.057 908.485C263.857 909.345 263.156 910.125 262.506 910.855C252.196 922.535 248.207 937.065 245.267 950.825C242.317 964.595 239.826 978.835 231.536 991.615C228.666 996.045 225.167 1000.18 221.597 1004.23C220.647 1005.3 219.377 1006.5 218.097 1006.35C217.647 1006.3 217.297 1006.09 216.967 1005.83C217.787 1006.83 218.786 1007.7 219.776 1008.54C220.176 1008.89 220.616 1009.24 221.196 1009.31C222.476 1009.46 223.767 1008.22 224.727 1007.13C228.337 1002.99 231.876 998.775 234.796 994.255C243.206 981.205 249.976 967.925 253.046 953.895C254.186 948.665 255.887 943.425 258.557 938.385C261.957 931.955 267.197 926.035 270.847 919.655C272.197 917.295 274.886 913.225 274.366 910.715C273.726 907.655 267.696 906.885 264.876 906.075C263.446 905.665 261.967 905.335 260.467 905.045C260.567 905.075 260.687 905.105 260.807 905.135Z" fill="#0A0652"/>
<path d="M232.176 904.425C234.286 907.255 236.376 910.245 236.786 913.925C237.266 918.265 235.296 923.085 232.366 927.245C229.906 930.735 226.806 933.835 223.626 936.855C222.856 935.645 221.995 934.485 221.045 933.415C219.505 931.685 217.495 930.125 215.045 929.775C213.395 928.595 211.426 927.845 209.136 928.205C208.236 928.345 207.146 928.825 206.896 929.655C206.786 930.005 206.856 930.345 206.926 930.665C207.456 933.155 207.746 935.855 208.616 938.195C209.216 939.815 210.196 941.255 210.836 942.865C212.796 947.725 214.106 952.955 216.166 957.745C217.326 961.425 218.396 965.185 218.545 969.205C218.816 976.395 216.176 983.955 213.596 991.315C212.586 994.195 211.566 997.245 212.236 999.885C212.856 1002.3 214.806 1004 216.686 1005.58C216.786 1005.66 216.876 1005.74 216.976 1005.82C217.306 1006.07 217.656 1006.29 218.106 1006.35C219.386 1006.5 220.666 1005.29 221.606 1004.22C225.176 1000.17 228.675 996.035 231.545 991.605C239.835 978.825 242.326 964.585 245.276 950.815C248.216 937.045 252.206 922.515 262.516 910.845C263.166 910.115 263.866 909.335 264.066 908.475C264.486 906.645 262.546 905.625 260.816 905.125C260.696 905.095 260.576 905.065 260.456 905.035C251.776 902.615 241.966 902.395 232.176 904.425Z" fill="url(#paint3_linear)"/>
<path d="M218.606 968.415C217.856 968.415 217.196 967.885 217.056 967.125C216.896 966.275 217.466 965.445 218.316 965.285C218.686 965.215 219.216 964.875 219.666 964.565C221.096 963.615 222.426 962.725 223.616 961.675C224.876 960.565 225.776 959.435 226.266 958.315C226.626 957.525 227.556 957.175 228.356 957.515C229.146 957.875 229.506 958.805 229.156 959.605C228.466 961.135 227.306 962.635 225.706 964.045C224.366 965.235 222.876 966.225 221.446 967.185C220.746 967.645 219.906 968.205 218.896 968.395C218.786 968.405 218.696 968.415 218.606 968.415Z" fill="#ECF2FE"/>
<path d="M216.517 960.605C216.027 960.605 215.536 960.375 215.226 959.935C214.726 959.225 214.896 958.235 215.606 957.735C218.776 955.495 222.376 952.955 224.406 949.695C224.866 948.955 225.846 948.735 226.576 949.185C227.316 949.645 227.536 950.615 227.076 951.355C224.706 955.165 220.826 957.895 217.416 960.315C217.146 960.515 216.827 960.605 216.517 960.605Z" fill="#ECF2FE"/>
<path d="M213.977 949.855C213.397 949.855 212.847 949.535 212.567 948.985C212.177 948.205 212.487 947.265 213.267 946.875C215.797 945.605 217.616 944.495 219.166 943.265C221.056 941.775 222.507 940.095 223.357 938.415C223.747 937.635 224.697 937.315 225.477 937.725C226.257 938.115 226.556 939.065 226.166 939.845C225.116 941.925 223.366 943.955 221.126 945.735C219.406 947.105 217.417 948.325 214.687 949.685C214.457 949.805 214.217 949.855 213.977 949.855Z" fill="#ECF2FE"/>
<path d="M232.286 956.355C234.056 954.955 237.546 952.945 239.086 954.815C239.556 955.385 239.536 956.255 239.376 957.065C238.936 959.215 238.336 961.255 240.276 962.475C240.526 962.625 240.876 962.745 241.166 962.535C241.366 962.395 241.436 962.155 241.496 961.945C242.616 957.795 243.906 953.655 244.876 949.505C245.966 944.885 246.866 940.255 248.286 935.645C249.716 930.985 251.876 926.315 254.066 921.775C256.006 917.765 257.726 913.625 260.646 909.955C261.066 909.435 261.526 908.875 261.596 908.285C261.726 907.195 260.546 906.555 259.636 906.265C256.316 905.175 252.276 905.105 248.516 905.245C247.516 905.285 246.446 905.295 245.796 906.295C245.236 907.145 245.196 908.205 245.296 909.055C245.636 912.005 246.486 914.795 246.746 917.785C247.076 921.505 246.636 925.495 244.026 929.115C241.776 932.235 238.466 933.945 235.016 935.495C232.306 936.715 229.476 937.595 226.666 938.095C226.296 938.155 225.916 938.225 225.586 938.435C225.016 938.805 224.806 939.545 225.026 940.045C225.246 940.545 225.806 940.815 226.406 940.895C227.006 940.965 227.646 940.865 228.286 940.765C230.116 940.475 231.956 940.195 233.786 939.905C234.336 939.815 234.956 939.755 235.296 940.075C236.746 941.435 233.066 944.745 231.846 945.655C230.506 946.655 229.046 947.485 227.666 948.435C227.326 948.665 226.986 948.915 226.746 949.235C226.506 949.555 226.376 949.965 226.506 950.265C226.656 950.585 227.046 950.705 227.436 950.745C228.896 950.925 230.527 950.375 231.967 949.585C233.577 948.695 235.207 946.895 236.967 946.605C239.597 946.175 236.506 950.855 235.856 951.475C234.176 953.085 232.056 954.175 230.356 955.765C229.956 956.135 229.576 956.535 229.346 956.995C229.246 957.195 229.166 957.415 229.196 957.615C229.236 957.875 229.456 958.075 229.736 958.095C230.536 958.155 231.666 956.845 232.286 956.355Z" fill="#FFB900"/>
<path d="M399.156 448.165L371.246 472.445L373.066 484.705C355.356 481.975 337.616 479.405 319.756 477.855C283.846 474.745 203.256 467.455 184.896 509.315C181.286 517.545 180.106 526.615 179.236 535.565C171.706 612.965 194.056 684.255 197.166 760.545C199.046 806.705 201.796 852.825 206.156 898.485L235.126 881.975C235.126 881.975 251.636 604.045 266.246 583.325C279.026 565.215 375.096 577.655 399.006 581.055L409.086 583.125C409.086 583.125 492.846 597.935 514.316 514.915C528.676 459.395 399.156 448.165 399.156 448.165Z" fill="url(#paint4_linear)"/>
<path d="M114.916 480.165L90.1064 511.615L56.2266 518.325L87.9863 473.185L114.916 480.165Z" fill="url(#paint5_linear)"/>
<path d="M81.8163 514.135C85.0463 513.995 88.1266 513.105 90.3466 511.355C91.6866 510.295 92.6867 508.955 93.9267 507.805C95.1667 506.655 96.726 505.675 98.666 505.565C99.356 505.525 100.106 505.615 100.776 505.925C101.966 506.485 102.666 507.695 102.786 508.795C102.906 509.895 102.557 510.915 102.177 511.885C101.327 514.115 100.346 516.325 98.7363 518.135C97.1263 519.945 94.8366 521.345 92.0566 521.605C89.3566 521.855 86.4762 521.035 83.6962 520.315C80.3462 519.445 76.9762 518.685 73.6962 517.495C71.4462 516.675 69.2463 515.645 67.2763 514.305C66.6063 513.845 63.4361 511.775 64.0361 510.875C64.8161 509.695 71.8462 512.715 73.1962 513.075C76.0662 513.825 78.9963 514.255 81.8163 514.135Z" fill="#0A0652"/>
<path d="M114.387 531.925C114.787 533.735 114.816 535.985 112.956 536.505C112.076 536.745 111.037 536.495 110.057 536.275C94.447 532.685 79.357 536.215 65.477 540.315C51.597 544.415 37.4971 549.155 21.8871 547.935C16.4771 547.515 11.0266 546.385 5.6166 545.145C4.1866 544.815 2.46696 544.255 1.97696 543.025C1.80696 542.595 1.82688 542.165 1.89688 541.745C1.39688 542.975 1.0968 544.305 0.816799 545.615C0.706799 546.155 0.586799 546.715 0.816799 547.275C1.3068 548.505 3.05699 549.065 4.51699 549.385C10.027 550.615 15.5771 551.745 21.0971 552.155C37.0171 553.345 52.337 552.945 66.517 548.825C71.797 547.295 77.367 546.255 83.227 546.185C90.707 546.105 98.6269 547.925 106.187 548.095C108.987 548.155 113.986 548.585 115.996 546.885C118.446 544.805 116.177 538.975 115.527 536.035C115.197 534.535 114.766 533.035 114.296 531.545C114.316 531.685 114.367 531.805 114.387 531.925Z" fill="#0A0652"/>
<path d="M100.966 505.705C99.4465 508.995 97.7661 512.355 94.6461 514.525C90.9561 517.095 85.6362 517.675 80.4362 517.065C76.0762 516.555 71.7457 515.275 67.4557 513.885C68.1757 512.595 68.7956 511.255 69.2956 509.865C70.0956 507.625 70.5364 505.045 69.6364 502.655C69.8864 500.585 69.5959 498.435 68.1559 496.545C67.5859 495.805 66.6257 495.055 65.7457 495.235C65.3757 495.305 65.1063 495.535 64.8463 495.755C62.8563 497.455 60.5559 499.045 58.8659 500.975C57.6959 502.315 56.8757 503.905 55.7457 505.275C52.3157 509.425 48.2357 513.185 44.9157 517.395C42.1557 520.255 39.2862 523.065 35.7262 525.175C29.3662 528.955 21.2361 530.275 13.3161 531.555C10.2161 532.055 6.9559 532.635 4.9059 534.535C3.0259 536.285 2.45571 538.875 1.95571 541.355C1.92571 541.485 1.90637 541.605 1.88637 541.735C1.81637 542.155 1.79645 542.585 1.96645 543.015C2.45645 544.245 4.1761 544.805 5.6061 545.135C11.0161 546.375 16.4656 547.505 21.8756 547.925C37.4956 549.135 51.5864 544.395 65.4664 540.305C79.3465 536.205 94.4356 532.675 110.046 536.265C111.026 536.495 112.066 536.745 112.946 536.495C114.806 535.975 114.776 533.725 114.376 531.915C114.346 531.795 114.306 531.665 114.276 531.545C112.226 522.535 107.616 513.565 100.966 505.705Z" fill="url(#paint6_linear)"/>
<path d="M48.8563 530.045C47.3463 530.045 45.7062 529.725 43.9462 529.085C42.1662 528.435 40.476 527.545 38.996 526.765C38.306 526.405 37.3662 525.905 36.6962 525.075C36.1462 524.405 36.2564 523.405 36.9364 522.855C37.6064 522.305 38.6061 522.415 39.1561 523.095C39.4161 523.415 40.0067 523.725 40.4667 523.965C41.8667 524.695 43.456 525.535 45.036 526.115C46.666 526.715 48.1064 526.985 49.3964 526.865C50.2764 526.775 51.0266 527.445 51.0966 528.315C51.1666 529.185 50.5164 529.945 49.6464 530.015C49.3864 530.035 49.1163 530.045 48.8563 530.045Z" fill="#ECF2FE"/>
<path d="M56.1565 524.115C56.1265 524.115 56.0967 524.115 56.0667 524.115C51.4567 523.845 46.9061 521.595 43.2561 519.785C42.4761 519.395 42.1562 518.455 42.5462 517.675C42.9362 516.895 43.8765 516.575 44.6565 516.965C48.2365 518.735 52.2969 520.735 56.2669 520.975C57.1369 521.025 57.7964 521.775 57.7464 522.645C57.6764 523.465 56.9865 524.115 56.1565 524.115Z" fill="#ECF2FE"/>
<path d="M65.646 517.635C63.356 517.635 60.8056 517.065 58.2456 515.965C55.6056 514.835 53.2661 513.305 51.5161 512.095C50.8061 511.595 50.6258 510.615 51.1158 509.895C51.6158 509.175 52.596 509.005 53.316 509.495C55.716 511.165 57.6259 512.265 59.4859 513.055C61.7759 514.035 64.0861 514.515 65.9361 514.465C65.9561 514.465 65.9661 514.465 65.9761 514.465C66.8261 514.465 67.5262 515.145 67.5562 515.995C67.5862 516.865 66.8959 517.595 66.0259 517.615C65.8959 517.635 65.776 517.635 65.646 517.635Z" fill="#ECF2FE"/>
<path d="M54.1062 531.305C56.2362 532.215 59.7757 534.385 58.8357 536.695C58.5457 537.405 57.756 537.805 56.946 538.055C54.786 538.715 52.6456 539.175 52.5056 541.525C52.4856 541.825 52.5565 542.205 52.8865 542.355C53.1065 542.465 53.3559 542.415 53.5759 542.365C57.8659 541.335 62.2463 540.465 66.4763 539.315C71.1863 538.025 75.8057 536.575 80.6658 535.585C85.5758 534.595 90.8559 534.245 96.0359 534.005C100.606 533.795 105.196 533.315 109.946 534.145C110.626 534.265 111.346 534.405 111.916 534.175C112.966 533.755 112.956 532.375 112.786 531.415C112.136 527.875 110.226 524.195 108.246 520.875C107.716 519.985 107.187 519.035 105.967 518.935C104.927 518.845 103.946 519.335 103.226 519.835C100.726 521.585 98.6264 523.725 96.0564 525.425C92.8564 527.545 89.0361 529.115 84.4861 528.535C80.5661 528.035 77.3856 525.885 74.2956 523.535C71.8556 521.685 69.6764 519.565 67.8464 517.265C67.6064 516.965 67.3656 516.655 67.0056 516.465C66.3956 516.135 65.6161 516.305 65.2761 516.755C64.9361 517.195 64.9563 517.835 65.1863 518.415C65.4163 518.995 65.8163 519.525 66.2263 520.055C67.3863 521.575 68.5458 523.085 69.7058 524.605C70.0558 525.055 70.4156 525.585 70.2956 526.055C69.7756 528.035 64.9761 526.335 63.5661 525.675C62.0061 524.945 60.5358 524.035 58.9958 523.265C58.6158 523.075 58.2261 522.885 57.8161 522.825C57.4061 522.765 56.9761 522.845 56.7761 523.115C56.5661 523.405 56.6456 523.825 56.7956 524.185C57.3556 525.585 58.6461 526.795 60.0661 527.705C61.6561 528.725 64.0865 529.305 65.2165 530.755C66.8965 532.915 61.1563 532.425 60.2663 532.145C57.9863 531.415 55.9563 530.045 53.6863 529.285C53.1563 529.105 52.6059 528.965 52.0759 528.975C51.8359 528.985 51.6063 529.025 51.4363 529.145C51.2163 529.305 51.1461 529.605 51.2761 529.875C51.6261 530.605 53.3662 530.985 54.1062 531.305Z" fill="#FFB900"/>
<path d="M404.376 456.375C404.376 456.375 383.326 347.825 369.576 283.645C355.826 219.465 288.547 182.915 211.597 273.845C125.447 375.655 61.7168 485.085 61.7168 485.085L117.687 482.675C117.687 482.675 267.606 299.795 273.256 317.295C278.906 334.785 281.576 417.725 300.786 496.285C311.246 539.045 339.426 571.385 383.746 579.145C413.436 584.345 445.247 581.935 472.477 568.145C490.837 558.845 516.536 538.985 495.316 521.925C466.316 498.625 434.566 478.135 404.376 456.375Z" fill="url(#paint7_linear)"/>
<path d="M522.286 194.015C522.286 194.015 549.786 195.445 578.816 227.375C592.486 242.415 614.566 331.115 573.186 432.225C556.076 474.035 504.736 544.695 504.736 544.695C504.736 544.695 449.406 514.445 435.376 493.565C421.346 472.685 414.346 461.215 404.366 456.375C394.386 451.535 428.906 389.135 430.686 376.655C444.096 282.735 459.026 280.165 464.106 257.525C469.186 234.885 501.616 202.915 507.476 195.875C513.336 188.835 522.286 194.015 522.286 194.015Z" fill="url(#paint8_linear)"/>
<g opacity="0.29">
<g opacity="0.29">
<path opacity="0.29" d="M539.317 329.875C509.347 329.875 481.237 311.115 454.607 291.085C453.677 290.385 453.497 289.065 454.187 288.145C454.887 287.225 456.196 287.025 457.126 287.725C491.486 313.555 528.327 337.275 567.687 319.355C568.747 318.885 569.987 319.335 570.467 320.395C570.947 321.455 570.487 322.695 569.427 323.175C559.197 327.855 549.157 329.875 539.317 329.875Z" fill="#BA9AFF"/>
</g>
<g opacity="0.29">
<path opacity="0.29" d="M518.756 373.265C492.886 373.265 466.996 371.185 442.706 361.355C441.626 360.915 441.106 359.695 441.546 358.615C441.976 357.535 443.206 357.025 444.286 357.455C476.776 370.605 512.666 369.525 547.376 368.485C554.776 368.265 562.137 368.045 569.427 367.955C569.437 367.955 569.446 367.955 569.446 367.955C570.596 367.955 571.536 368.875 571.546 370.035C571.556 371.195 570.627 372.145 569.467 372.165C562.207 372.255 554.866 372.465 547.496 372.695C537.976 372.985 528.366 373.265 518.756 373.265Z" fill="#BA9AFF"/>
</g>
<g opacity="0.29">
<path opacity="0.29" d="M468.626 355.265C468.516 355.265 468.417 355.255 468.307 355.245C461.007 354.145 454.386 349.055 451.446 342.285C450.986 341.225 451.476 339.985 452.536 339.515C453.616 339.065 454.837 339.545 455.307 340.605C457.677 346.075 463.027 350.195 468.937 351.085C470.087 351.255 470.876 352.325 470.706 353.475C470.546 354.515 469.646 355.265 468.626 355.265Z" fill="#BA9AFF"/>
</g>
<g opacity="0.29">
<path opacity="0.29" d="M498.737 365.075C494.707 365.075 490.656 363.765 487.456 361.335C486.536 360.625 486.357 359.315 487.067 358.385C487.777 357.465 489.097 357.285 490.017 357.995C493.457 360.625 498.206 361.545 502.376 360.395C503.506 360.105 504.657 360.745 504.967 361.865C505.277 362.985 504.616 364.145 503.496 364.455C501.946 364.865 500.347 365.075 498.737 365.075Z" fill="#BA9AFF"/>
</g>
<g opacity="0.29">
<path opacity="0.29" d="M517.526 361.225C516.676 361.225 515.866 360.705 515.556 359.855C515.146 358.765 515.706 357.555 516.796 357.145L525.467 353.905C526.547 353.505 527.767 354.045 528.177 355.145C528.587 356.225 528.026 357.445 526.936 357.855L518.266 361.095C518.016 361.185 517.776 361.225 517.526 361.225Z" fill="#BA9AFF"/>
</g>
<g opacity="0.29">
<path opacity="0.29" d="M554.847 356.685C554.757 356.685 554.656 356.685 554.566 356.665C551.146 356.205 547.676 355.965 544.276 355.945C543.116 355.945 542.177 354.995 542.187 353.835C542.197 352.675 543.126 351.745 544.286 351.745H544.296C547.886 351.765 551.526 352.015 555.126 352.505C556.276 352.655 557.087 353.715 556.927 354.865C556.787 355.915 555.877 356.685 554.847 356.685Z" fill="#BA9AFF"/>
</g>
<g opacity="0.29">
<path opacity="0.29" d="M523.467 263.575C508.597 263.575 493.486 244.985 484.316 224.645C483.836 223.585 484.316 222.345 485.376 221.865C486.416 221.385 487.676 221.855 488.156 222.925C497.356 243.335 513.616 263.245 527.576 258.725C543.586 253.545 546.386 225.075 546.856 213.085C546.906 211.925 547.766 210.985 549.036 211.065C550.196 211.105 551.107 212.085 551.057 213.245C550.557 226.125 547.396 256.725 528.866 262.725C527.076 263.295 525.277 263.575 523.467 263.575Z" fill="#BA9AFF"/>
</g>
<g opacity="0.29">
<path opacity="0.29" d="M490.746 232.575C490.696 232.575 490.647 232.575 490.597 232.575C489.437 232.495 488.567 231.495 488.637 230.335C488.827 227.585 489.206 224.935 489.756 222.435C490.006 221.305 491.117 220.605 492.267 220.835C493.397 221.085 494.116 222.215 493.866 223.345C493.356 225.645 493.006 228.095 492.836 230.625C492.766 231.725 491.846 232.575 490.746 232.575Z" fill="#BA9AFF"/>
</g>
<g opacity="0.29">
<path opacity="0.29" d="M494.176 232.625C493.556 232.625 492.956 232.355 492.536 231.835C490.236 228.965 488.176 225.725 486.426 222.215C485.906 221.175 486.326 219.915 487.366 219.395C488.396 218.875 489.666 219.295 490.186 220.335C491.806 223.575 493.706 226.565 495.826 229.205C496.546 230.115 496.406 231.435 495.496 232.165C495.106 232.475 494.646 232.625 494.176 232.625Z" fill="#BA9AFF"/>
</g>
<g opacity="0.29">
<path opacity="0.29" d="M498.477 245.305C498.437 245.305 498.387 245.305 498.347 245.305C497.187 245.235 496.306 244.235 496.376 243.075L496.767 236.655C496.837 235.495 497.886 234.535 498.996 234.685C500.156 234.755 501.037 235.755 500.967 236.915L500.576 243.335C500.506 244.445 499.587 245.305 498.477 245.305Z" fill="#BA9AFF"/>
</g>
<g opacity="0.29">
<path opacity="0.29" d="M501.867 245.375C501.347 245.375 500.826 245.185 500.416 244.795C498.006 242.525 495.766 239.845 493.756 236.855C493.546 236.535 492.997 235.705 493.097 234.645L493.277 232.725L495.437 232.515C496.647 232.525 497.627 233.455 497.717 234.675C497.737 234.845 497.727 235.015 497.697 235.175C499.437 237.675 501.306 239.855 503.296 241.735C504.136 242.535 504.176 243.865 503.376 244.705C502.986 245.145 502.427 245.375 501.867 245.375Z" fill="#BA9AFF"/>
</g>
<g opacity="0.29">
<path opacity="0.29" d="M504.376 252.665C503.446 252.665 502.597 252.045 502.347 251.105C502.047 249.985 502.716 248.835 503.836 248.535L513.787 245.875C514.917 245.595 516.057 246.245 516.357 247.365C516.657 248.485 515.987 249.635 514.867 249.935L504.916 252.595C504.736 252.645 504.546 252.665 504.376 252.665Z" fill="#BA9AFF"/>
</g>
<g opacity="0.29">
<path opacity="0.29" d="M510.847 260.275C509.967 260.275 509.147 259.725 508.857 258.845L504.217 245.075C503.847 243.975 504.436 242.775 505.536 242.405C506.666 242.035 507.826 242.635 508.206 243.725L512.847 257.495C513.217 258.595 512.627 259.785 511.527 260.155C511.297 260.245 511.067 260.275 510.847 260.275Z" fill="#BA9AFF"/>
</g>
<g opacity="0.29">
<path opacity="0.29" d="M516.217 262.335C515.427 262.335 514.667 261.885 514.307 261.125C513.817 260.075 514.266 258.825 515.316 258.325C517.936 257.105 520.326 255.275 522.456 252.905C523.226 252.045 524.557 251.965 525.427 252.735C526.297 253.515 526.367 254.835 525.597 255.705C523.097 258.505 520.236 260.665 517.106 262.135C516.816 262.275 516.517 262.335 516.217 262.335Z" fill="#BA9AFF"/>
</g>
<g opacity="0.29">
<path opacity="0.29" d="M524.146 262.455C523.626 262.455 523.106 262.265 522.696 261.885C520.216 259.535 517.816 256.925 515.556 254.125C514.826 253.225 514.966 251.895 515.876 251.165C516.766 250.445 518.095 250.575 518.835 251.485C520.975 254.135 523.245 256.605 525.585 258.825C526.425 259.625 526.466 260.955 525.666 261.795C525.266 262.235 524.706 262.455 524.146 262.455Z" fill="#BA9AFF"/>
</g>
<g opacity="0.29">
<path opacity="0.29" d="M529.326 258.535C529.106 258.535 528.886 258.505 528.666 258.435C527.566 258.065 526.966 256.885 527.326 255.775L530.046 247.475C530.416 246.375 531.586 245.775 532.706 246.135C533.806 246.505 534.406 247.685 534.046 248.795L531.326 257.095C531.036 257.965 530.206 258.535 529.326 258.535Z" fill="#BA9AFF"/>
</g>
<g opacity="0.29">
<path opacity="0.29" d="M535.456 255.735C535.256 255.735 535.046 255.705 534.846 255.645C532.406 254.915 530.066 253.565 527.866 251.655C527.156 251.045 526.416 249.845 526.476 248.655L526.526 247.635L527.516 246.735C528.466 246.065 529.776 246.295 530.446 247.245C530.746 247.665 530.866 248.155 530.816 248.635C532.486 250.065 534.286 251.095 536.056 251.625C537.166 251.965 537.796 253.135 537.456 254.245C537.186 255.155 536.356 255.735 535.456 255.735Z" fill="#BA9AFF"/>
</g>
<g opacity="0.29">
<path opacity="0.29" d="M540.146 249.605C539.316 249.605 538.526 249.105 538.196 248.295L537.526 246.655L538.727 241.265C538.977 240.135 540.106 239.415 541.236 239.665C542.366 239.915 543.086 241.045 542.836 242.175L541.916 246.285L542.097 246.715C542.537 247.795 542.007 249.015 540.937 249.455C540.677 249.565 540.406 249.605 540.146 249.605Z" fill="#BA9AFF"/>
</g>
<g opacity="0.29">
<path opacity="0.29" d="M546.577 227.165C545.627 227.165 544.756 226.515 544.536 225.555C543.946 223.075 544.207 220.455 545.227 218.545C545.777 217.515 547.057 217.145 548.077 217.695C549.097 218.245 549.477 219.525 548.927 220.545C548.397 221.515 548.276 223.145 548.626 224.575C548.896 225.705 548.197 226.835 547.067 227.105C546.907 227.145 546.737 227.165 546.577 227.165Z" fill="#BA9AFF"/>
</g>
<g opacity="0.29">
<path opacity="0.29" d="M481.606 301.025C481.416 301.025 481.216 301.005 481.016 300.945C477.656 299.965 474.996 296.995 474.396 293.555C474.196 292.405 474.956 291.325 476.096 291.115C477.226 290.895 478.326 291.675 478.526 292.815C478.856 294.685 480.366 296.365 482.186 296.895C483.296 297.215 483.946 298.385 483.616 299.505C483.366 300.435 482.526 301.025 481.606 301.025Z" fill="#BA9AFF"/>
</g>
<g opacity="0.29">
<path opacity="0.29" d="M495.446 309.025C492.256 309.025 489.126 307.675 486.946 305.315C486.156 304.465 486.206 303.135 487.066 302.345C487.916 301.555 489.246 301.615 490.036 302.465C491.536 304.095 493.776 304.995 496.056 304.795C497.096 304.725 498.226 305.555 498.326 306.715C498.426 307.865 497.566 308.885 496.406 308.985C496.096 309.015 495.776 309.025 495.446 309.025Z" fill="#BA9AFF"/>
</g>
<g opacity="0.29">
<path opacity="0.29" d="M516.076 313.465C516.026 313.465 515.966 313.465 515.916 313.465C512.706 313.225 509.497 312.725 506.387 311.955C505.257 311.675 504.566 310.545 504.846 309.415C505.116 308.285 506.247 307.605 507.387 307.875C510.267 308.585 513.247 309.045 516.217 309.265C517.377 309.355 518.246 310.355 518.166 311.515C518.086 312.625 517.156 313.465 516.076 313.465Z" fill="#BA9AFF"/>
</g>
<g opacity="0.29">
<path opacity="0.29" d="M535.767 315.745C535.727 315.745 535.686 315.745 535.646 315.745L528.896 315.365C527.736 315.295 526.856 314.305 526.916 313.145C526.986 311.995 527.907 311.015 529.137 311.165L535.887 311.545C537.047 311.615 537.926 312.605 537.866 313.765C537.806 314.875 536.877 315.745 535.767 315.745Z" fill="#BA9AFF"/>
</g>
<g opacity="0.29">
<path opacity="0.29" d="M546.296 316.275C545.356 316.275 544.506 315.645 544.256 314.695C543.966 313.565 544.647 312.425 545.777 312.135L551.086 310.775C552.236 310.485 553.367 311.165 553.647 312.295C553.937 313.425 553.256 314.565 552.126 314.855L546.817 316.215C546.647 316.255 546.466 316.275 546.296 316.275Z" fill="#BA9AFF"/>
</g>
<g opacity="0.29">
<path opacity="0.29" d="M562.286 311.765C561.706 311.765 561.126 311.525 560.706 311.055C559.936 310.185 560.017 308.855 560.897 308.095C563.027 306.215 565.356 304.575 567.836 303.185C568.846 302.625 570.127 302.975 570.697 303.995C571.267 305.005 570.897 306.285 569.887 306.855C567.667 308.095 565.577 309.565 563.677 311.245C563.277 311.595 562.786 311.765 562.286 311.765Z" fill="#BA9AFF"/>
</g>
</g>
<path d="M494.446 206.104C494.426 232.424 539.596 224.984 540.746 205.834C541.286 196.854 541.816 187.864 542.356 178.884C542.626 174.394 542.896 169.904 543.166 165.404C543.386 161.704 544.796 156.274 543.606 152.814C527.986 156.364 519.237 156.065 504.187 161.125C501.967 161.635 500.306 177.274 499.906 179.254C498.306 187.304 494.456 197.144 494.446 206.104Z" fill="url(#paint9_linear)"/>
<path d="M561.287 136.254C551.027 148.864 548.937 161.924 534.746 170.404C527.646 174.644 499.937 186.435 491.777 186.685C462.987 187.575 488.827 148.965 474.947 141.325C455.037 130.365 472.977 124.645 486.307 101.085C490.257 94.0946 488.556 81.9346 490.376 74.1046C494.876 54.7046 513.526 36.5547 533.496 33.9647C554.556 31.2347 575.487 45.0147 586.807 61.9547C599.277 80.6147 592.337 103.575 576.947 118.395C570.977 124.165 566.277 130.134 561.287 136.254Z" fill="#FFCFCB"/>
<path d="M489.886 110.254C490.576 109.834 491.556 110.084 492.026 110.734C493.386 112.654 490.406 114.415 488.766 113.555C487.316 112.795 486.826 110.405 488.636 109.785C489.826 109.375 491.156 109.855 492.186 110.575" fill="#000614"/>
<path d="M488.116 162.134C488.096 162.134 488.076 162.134 488.066 162.134C484.666 162.124 481.066 160.584 478.316 159.244C477.796 158.994 477.576 158.365 477.836 157.845C478.086 157.315 478.716 157.094 479.236 157.364C481.786 158.604 485.096 160.034 488.076 160.044C488.086 160.044 488.106 160.044 488.116 160.044C490.306 160.044 492.886 159.104 493.626 156.464C493.786 155.904 494.357 155.584 494.927 155.734C495.487 155.894 495.816 156.474 495.656 157.034C494.776 160.124 491.826 162.134 488.116 162.134Z" fill="#D77E8E"/>
<path d="M499.727 93.3053C505.447 92.4753 513.336 100.675 510.666 95.2853C511.066 95.1153 506.626 89.6951 502.396 88.7951C500.966 88.0951 497.086 86.6051 494.736 87.8551C489.556 90.9851 498.527 92.4153 499.727 93.3053Z" fill="#750114"/>
<path d="M479.817 60.6649C480.787 60.3849 487.047 55.745 487.217 52.575C487.387 49.405 486.627 46.485 487.107 43.265C488.067 36.915 494.606 31.2247 499.126 32.8047C500.366 33.2347 501.547 34.1048 502.957 33.5948C503.707 33.3248 504.396 32.6948 505.046 32.0648C508.416 28.7848 511.517 24.7948 515.277 22.5748C519.027 20.3548 523.807 20.7649 524.697 24.9649C535.777 12.7649 569.937 -4.96512 572.227 2.18488C566.807 5.34488 557.777 19.3147 555.687 19.7947C561.377 23.1247 571.037 11.5547 575.457 8.5047C583.007 3.2847 593.757 2.63474 602.117 4.79474C606.317 5.87474 610.576 7.90482 613.336 11.6248C616.866 16.3948 615.216 20.6047 615.876 26.0347C616.156 28.3047 617.557 30.3749 619.207 31.6849C623.777 35.3249 630.097 35.1149 634.537 39.2049C640.827 45.0049 643.057 53.4846 638.887 61.9246C635.647 68.4646 629.887 73.0149 624.247 77.1649C620.327 80.0349 616.147 82.925 611.497 83.345C612.637 78.115 620.917 78.6748 622.647 73.6248C622.897 72.8948 622.977 72.0949 623.357 71.4349C625.027 68.5349 630.367 73.9546 631.817 74.9246C633.827 76.2746 635.827 77.5848 637.867 75.5648C638.307 75.1248 638.277 80.1147 637.747 81.0047C636.577 82.9647 634.387 84.415 632.607 85.595C628.257 88.475 643.747 83.0248 642.927 88.8948C640.977 102.905 612.737 106.585 606.267 118.985C600.607 129.815 600.077 142.265 594.897 144.305C530.667 169.575 552.527 145.185 556.997 144.645C560.257 144.245 565.037 128.215 560.637 123.435C556.237 118.645 553.117 112.325 550.467 105.705C548.617 101.075 546.837 96.0748 543.217 93.5648C538.727 90.4448 536.086 91.8947 530.256 93.0047C517.076 95.4947 508.567 84.1648 507.267 71.5848C506.947 68.4448 506.567 60.6549 508.867 58.1849C504.777 62.5949 504.737 66.9546 504.347 72.4246C504.047 76.7246 504.557 80.115 507.077 87.825C501.307 78.335 493.107 78.2246 493.427 64.9246C489.667 68.5246 477.377 61.3549 479.817 60.6649Z" fill="url(#paint10_linear)"/>
<path d="M586.876 86.9751C592.116 87.6651 598.117 85.525 603.187 81.165C597.567 84.775 591.296 85.5847 586.376 83.3647C586.986 83.7147 587.586 84.0548 588.196 84.4048" fill="#FF5946"/>
<path d="M527.387 19.4446C529.937 15.1446 533.557 11.6346 537.407 9.72461C534.787 9.82461 532.017 9.98461 529.447 11.7246C526.887 13.4746 524.717 17.3946 525.527 20.2046C526.267 20.2946 527.167 19.7345 527.677 18.8545" fill="#FF5946"/>
<path d="M623.196 108.904C623.796 110.384 622.597 112.044 621.227 112.814C619.147 113.984 617.536 114.885 615.656 116.305C614.426 117.235 612.867 118.685 612.767 115.685C612.617 111.295 620.796 111.034 623.196 108.904Z" fill="#FF5946"/>
<path d="M638.607 72.8145C638.787 72.4045 638.847 71.9546 638.927 71.5146C639.157 70.3146 639.567 69.1445 640.147 68.0645C638.937 68.4645 637.636 68.9344 636.956 70.0444C636.326 71.0644 636.216 71.9546 635.236 72.7046C634.466 73.3046 633.586 73.0845 633.946 74.3345C634.686 76.9145 638.057 74.0745 638.607 72.8145Z" fill="#FF5946"/>
<path d="M577.126 112.515C575.136 112.515 573.106 112.264 571.106 111.734C565.366 110.234 559.736 106.594 554.826 101.194C553.126 99.3244 551.106 96.7843 550.486 93.6143C550.186 92.0943 550.236 90.6247 550.286 89.2047C550.306 88.4947 550.337 87.7945 550.307 87.0845C550.137 82.8245 547.587 78.6547 543.967 76.7247C541.377 75.3447 538.347 74.9746 535.137 74.5846C534.067 74.4546 532.996 74.3246 531.936 74.1646C525.686 73.1846 521.476 70.6947 519.416 66.7447C517.006 62.1247 518.256 56.5047 519.086 52.7847C519.396 51.3947 520.046 48.5048 522.486 47.3048C523.526 46.7848 524.786 47.2147 525.296 48.2647C525.806 49.3047 525.386 50.5648 524.336 51.0748C523.706 51.3848 523.326 53.0747 523.186 53.7047C522.266 57.8347 521.567 61.7948 523.137 64.8048C524.547 67.5048 527.726 69.2547 532.576 70.0147C533.586 70.1747 534.606 70.2944 535.626 70.4244C539.076 70.8344 542.656 71.2745 545.936 73.0245C550.906 75.6745 554.266 81.1346 554.506 86.9346C554.536 87.7346 554.506 88.5543 554.486 89.3643C554.446 90.6043 554.396 91.7645 554.606 92.8145C555.026 94.9545 556.526 96.8344 557.936 98.3844C562.296 103.174 567.216 106.385 572.156 107.685C577.746 109.125 583.706 108.004 587.696 104.734C588.586 104.004 589.926 104.124 590.656 105.024C591.396 105.924 591.256 107.244 590.366 107.984C586.756 110.944 582.056 112.515 577.126 112.515Z" fill="#ED310B"/>
<path d="M587.076 63.4842C585.566 63.4842 584.076 63.1943 582.716 62.5843C579.666 61.2243 577.636 58.6744 575.666 56.2044C573.806 53.8644 572.036 51.6544 569.696 50.9144C566.646 49.9644 563.165 51.6444 559.505 53.4344C555.195 55.5444 550.316 57.9342 545.476 55.6742C542.376 54.2242 540.636 51.4445 538.946 48.7445C537.716 46.7745 536.556 44.9145 534.976 43.7845C533.066 42.4245 530.376 42.2045 528.276 43.2645C526.126 44.3445 524.566 46.7342 524.376 49.2142C524.286 50.3742 523.236 51.2442 522.126 51.1542C520.966 51.0642 520.096 50.0542 520.186 48.9042C520.486 44.9442 522.926 41.2542 526.386 39.5042C529.896 37.7442 534.236 38.0744 537.426 40.3644C539.686 41.9844 541.126 44.2943 542.516 46.5243C543.936 48.7943 545.275 50.9441 547.255 51.8641C550.265 53.2741 553.686 51.6042 557.656 49.6542C561.706 47.6742 566.286 45.4242 570.966 46.9042C574.526 48.0342 576.786 50.8543 578.956 53.5843C580.686 55.7543 582.316 57.8045 584.426 58.7445C586.976 59.8945 590.296 59.2241 592.676 57.1141C594.966 55.0941 596.436 51.8545 596.716 48.2445C596.806 47.0845 597.916 46.2445 598.976 46.3045C600.136 46.3945 600.996 47.4043 600.916 48.5643C600.556 53.2543 598.576 57.5243 595.466 60.2743C593.086 62.3643 590.036 63.4842 587.076 63.4842Z" fill="#ED310B"/>
<path d="M516.486 42.9645C515.886 42.9645 515.286 42.7047 514.866 42.2047C513.286 40.2847 512.716 37.7245 513.286 34.9945C513.976 31.7145 516.156 28.7746 518.986 27.3346C522.966 25.3246 527.956 25.4645 533.836 27.7645C535.126 28.2745 536.396 28.8346 537.666 29.4046C540.526 30.6846 543.226 31.8846 546.066 32.3546C551.106 33.1746 556.207 31.6445 561.597 30.0145C567.117 28.3445 572.846 26.6245 578.736 27.4945L579.376 27.5946C580.426 27.7646 581.406 27.9146 582.026 27.6446C583.016 27.2046 583.406 25.7845 583.916 23.5045C584.176 22.3445 584.446 21.1445 584.916 20.0045C585.936 17.5145 587.966 15.5447 590.656 14.4547C593.596 13.2547 597.046 13.2845 599.856 14.5245C604.386 16.5145 607.917 21.2946 609.307 27.3146C609.567 28.4446 608.867 29.5746 607.727 29.8346C606.587 30.1046 605.466 29.3945 605.206 28.2545C604.116 23.5245 601.486 19.8346 598.166 18.3746C596.376 17.5946 594.156 17.5746 592.236 18.3546C590.616 19.0146 589.396 20.1646 588.816 21.5946C588.456 22.4646 588.246 23.4547 588.026 24.4247C587.456 26.9747 586.736 30.1545 583.746 31.4845C581.976 32.2645 580.177 31.9845 578.717 31.7445L578.137 31.6546C573.167 30.9146 568.136 32.4345 562.816 34.0345C557.186 35.7245 551.366 37.4845 545.396 36.4945C542.016 35.9445 538.936 34.5645 535.956 33.2445C534.746 32.7045 533.537 32.1647 532.307 31.6847C527.607 29.8347 523.766 29.6446 520.896 31.0846C519.226 31.9346 517.826 33.8446 517.406 35.8446C517.226 36.6846 517.086 38.2845 518.116 39.5245C518.856 40.4245 518.726 41.7445 517.836 42.4845C517.436 42.8145 516.966 42.9645 516.486 42.9645Z" fill="#ED310B"/>
<g opacity="0.75">
<g opacity="0.75">
<path opacity="0.75" d="M540.106 64.6348C539.966 64.6348 539.817 64.6049 539.677 64.5449C535.927 62.8649 533.046 59.415 531.956 55.335C531.806 54.775 532.136 54.1949 532.696 54.0449C533.256 53.8949 533.836 54.2252 533.986 54.7852C534.896 58.2152 537.406 61.2148 540.536 62.6148C541.066 62.8548 541.296 63.4749 541.066 64.0049C540.886 64.4049 540.506 64.6348 540.106 64.6348Z" fill="#FEA246"/>
</g>
<g opacity="0.75">
<path opacity="0.75" d="M553.045 77.6552C552.705 77.6552 552.366 77.4852 552.166 77.1752L545.466 66.9155C545.146 66.4355 545.286 65.7753 545.766 65.4653C546.246 65.1453 546.906 65.2856 547.216 65.7656L553.916 76.0253C554.236 76.5053 554.096 77.1655 553.616 77.4755C553.446 77.6055 553.245 77.6552 553.045 77.6552Z" fill="#FEA246"/>
</g>
<g opacity="0.75">
<path opacity="0.75" d="M560.206 92.3253C559.826 92.3253 559.466 92.1252 559.276 91.7652C557.686 88.7552 556.506 85.5449 555.786 82.1949C555.666 81.6249 556.026 81.0649 556.586 80.9449C557.156 80.8249 557.716 81.185 557.836 81.755C558.516 84.905 559.626 87.945 561.126 90.775C561.396 91.285 561.206 91.9249 560.686 92.1949C560.546 92.2849 560.376 92.3253 560.206 92.3253Z" fill="#FEA246"/>
</g>
<g opacity="0.75">
<path opacity="0.75" d="M581.317 86.0451C580.957 86.0451 580.597 85.985 580.237 85.885C579.127 85.535 578.267 84.7052 577.937 83.6652C577.757 83.1152 578.066 82.5154 578.626 82.3454C579.206 82.1754 579.777 82.4854 579.947 83.0354C580.067 83.4254 580.417 83.7352 580.867 83.8752C581.307 84.0152 581.737 83.9453 582.037 83.7253C582.497 83.3653 583.156 83.445 583.506 83.905C583.866 84.365 583.787 85.0252 583.327 85.3752C582.767 85.8052 582.057 86.0451 581.317 86.0451Z" fill="#FEA246"/>
</g>
<g opacity="0.75">
<path opacity="0.75" d="M597.036 85.0451C596.556 85.0451 596.116 84.705 596.006 84.215C595.886 83.645 596.237 83.085 596.807 82.965C598.947 82.495 601.046 81.5553 602.866 80.2453C603.336 79.9153 603.996 80.0151 604.336 80.4851C604.676 80.9551 604.567 81.6153 604.097 81.9553C602.047 83.4253 599.686 84.4951 597.256 85.0251C597.176 85.0451 597.106 85.0451 597.036 85.0451Z" fill="#FEA246"/>
</g>
<g opacity="0.75">
<path opacity="0.75" d="M616.607 75.4647C616.297 75.4647 615.996 75.325 615.786 75.075C615.426 74.625 615.497 73.9651 615.947 73.5951C617.347 72.4751 618.546 71.125 619.536 69.575C619.856 69.095 620.497 68.9447 620.987 69.2547C621.477 69.5647 621.617 70.2249 621.307 70.7049C620.197 72.4449 618.826 73.9647 617.256 75.2347C617.076 75.3947 616.837 75.4647 616.607 75.4647Z" fill="#FEA246"/>
</g>
<g opacity="0.75">
<path opacity="0.75" d="M546.326 46.5249C545.776 46.5249 545.316 46.1051 545.276 45.5551C545.226 44.9751 545.666 44.4748 546.246 44.4248L553.496 43.8847C554.056 43.7347 554.576 44.2749 554.626 44.8549C554.676 45.4349 554.236 45.9348 553.656 45.9848L546.406 46.5249C546.376 46.5249 546.346 46.5249 546.326 46.5249Z" fill="#FEA246"/>
</g>
<g opacity="0.75">
<path opacity="0.75" d="M561.527 44.785C561.217 44.785 560.896 44.6448 560.696 44.3748C560.346 43.9148 560.427 43.2549 560.887 42.8949C563.447 40.9249 566.816 40.2247 569.876 41.0347C570.436 41.1847 570.776 41.765 570.626 42.325C570.476 42.885 569.916 43.215 569.336 43.075C566.916 42.435 564.176 43.0048 562.166 44.5648C561.976 44.7148 561.757 44.785 561.527 44.785Z" fill="#FEA246"/>
</g>
<g opacity="0.75">
<path opacity="0.75" d="M583.606 51.6347C583.456 51.6347 583.296 51.6051 583.146 51.5351C580.946 50.4851 579.076 48.6949 577.886 46.5049C577.606 45.9949 577.796 45.3552 578.306 45.0752C578.806 44.8052 579.456 44.9851 579.736 45.4951C580.716 47.3051 582.256 48.7747 584.056 49.6347C584.576 49.8847 584.795 50.5151 584.545 51.0351C584.365 51.4151 583.986 51.6347 583.606 51.6347Z" fill="#FEA246"/>
</g>
<g opacity="0.75">
<path opacity="0.75" d="M589.476 51.6549C589.046 51.6549 588.626 51.3749 588.486 50.9449C588.296 50.3949 588.586 49.7948 589.136 49.6148C590.406 49.1748 591.526 48.3051 592.286 47.1451C592.606 46.6651 593.266 46.5253 593.736 46.8453C594.226 47.1653 594.356 47.815 594.036 48.295C593.026 49.845 591.526 51.0251 589.806 51.6051C589.696 51.6351 589.586 51.6549 589.476 51.6549Z" fill="#FEA246"/>
</g>
<g opacity="0.75">
<path opacity="0.75" d="M602.996 43.1747C602.736 43.1747 602.476 43.0747 602.266 42.8847C601.846 42.4847 601.836 41.8149 602.236 41.3949C603.506 40.0649 605.176 39.1448 606.936 38.7748C607.496 38.6748 608.066 39.0249 608.176 39.5949C608.296 40.1649 607.926 40.7249 607.356 40.8349C606.006 41.1149 604.726 41.8349 603.746 42.8549C603.556 43.0649 603.276 43.1747 602.996 43.1747Z" fill="#FEA246"/>
</g>
<g opacity="0.75">
<path opacity="0.75" d="M621.016 45.385C620.996 45.385 620.976 45.385 620.956 45.385C618.536 45.245 616.166 44.475 614.116 43.135C613.636 42.815 613.496 42.1753 613.816 41.6853C614.136 41.2053 614.796 41.0653 615.266 41.3853C617.006 42.5153 619.016 43.1752 621.066 43.2952C621.646 43.3252 622.086 43.825 622.056 44.405C622.036 44.955 621.566 45.385 621.016 45.385Z" fill="#FEA246"/>
</g>
<g opacity="0.75">
<path opacity="0.75" d="M629.197 49.0052C628.227 49.0052 627.247 48.6952 626.467 48.0652C626.017 47.6952 625.947 47.0353 626.307 46.5853C626.667 46.1253 627.336 46.0651 627.786 46.4251C628.656 47.1251 630.117 47.0254 630.907 46.1854C631.297 45.7654 631.977 45.7453 632.397 46.1453C632.817 46.5453 632.837 47.2051 632.437 47.6351C631.587 48.5351 630.387 49.0052 629.197 49.0052Z" fill="#FEA246"/>
</g>
</g>
<path d="M487.517 132.035C485.967 132.035 484.437 131.764 482.967 131.214C478.967 129.724 475.947 126.385 474.467 121.805C473.037 117.355 473.227 112.255 475.027 107.415C478.777 97.3145 488.447 91.5544 496.577 94.5644C504.707 97.5844 508.267 108.264 504.517 118.364C502.727 123.194 499.537 127.194 495.557 129.634C492.957 131.224 490.207 132.035 487.517 132.035ZM477.987 108.515C476.437 112.685 476.257 117.054 477.477 120.834C478.647 124.474 480.987 127.114 484.077 128.254C487.167 129.404 490.657 128.935 493.917 126.935C497.307 124.875 500.027 121.435 501.567 117.265C504.717 108.795 501.987 99.9344 495.477 97.5244C488.987 95.1144 481.127 100.045 477.987 108.515Z" fill="#5139B5"/>
<path d="M567.517 137.845C567.307 137.845 567.097 137.835 566.887 137.825L567.146 134.674C569.206 134.884 571.506 133.455 572.646 131.285C573.686 129.305 573.916 126.674 573.316 123.874C572.946 122.164 571.046 119.325 569.656 118.015C566.906 115.445 562.967 114.554 557.967 115.374C550.537 116.594 510.997 118.334 504.177 118.194L504.227 115.044C510.997 115.174 550.386 113.425 557.456 112.265C563.476 111.265 568.317 112.424 571.807 115.714C573.597 117.394 575.857 120.725 576.387 123.205C576.927 125.695 577.197 129.385 575.427 132.745C573.807 135.865 570.677 137.845 567.517 137.845Z" fill="#5139B5"/>
<path d="M557.606 118.924C557.606 118.924 562.827 110.544 569.887 120.904C576.947 131.264 572.747 145.904 566.307 146.244C559.867 146.574 553.807 145.845 553.807 145.845L557.606 118.924Z" fill="#FFCFCB"/>
<path d="M643.946 592.685C643.946 592.685 644.456 608.375 648.246 618.105C648.316 618.275 648.376 618.435 648.446 618.595C648.446 618.595 651.026 628.715 651.866 631.365C652.706 634.015 651.586 644.575 650.416 644.755C649.246 644.945 645.756 646.045 645.276 644.015C644.796 641.985 643.616 637.795 643.616 637.795C643.616 637.795 644.386 645.575 643.266 645.925C642.146 646.275 638.125 648.095 637.545 646.275C636.965 644.455 635.696 637.015 635.696 637.015C635.696 637.015 635.676 646.675 635.126 646.855C634.566 647.035 631.426 648.755 629.036 647.505C626.646 646.255 625.636 636.735 625.636 636.735C625.636 636.735 626.786 646.215 625.946 646.475C625.106 646.735 620.436 647.485 619.166 642.965C617.896 638.445 618.996 625.895 619.126 620.015C619.266 614.135 623.226 604.325 622.386 598.755C621.546 593.185 644.306 592.375 644.306 592.375" fill="url(#paint11_linear)"/>
<path d="M566.456 217.145C566.456 217.145 621.046 244.075 644.986 334.275C668.926 424.475 653.776 593.415 653.776 593.415C653.776 593.415 624.616 609.935 616.046 600.945C607.476 591.945 636.377 465.755 591.717 383.295C547.047 300.825 481.786 198.525 566.456 217.145Z" fill="url(#paint12_linear)"/>
<defs>
<linearGradient id="paint0_linear" x1="329.903" y1="134.217" x2="280.08" y2="40.1336" gradientUnits="userSpaceOnUse">
<stop stop-color="#FFCFCB"/>
<stop offset="1" stop-color="#D77E8E"/>
</linearGradient>
<linearGradient id="paint1_linear" x1="423.654" y1="146.012" x2="458.54" y2="241.711" gradientUnits="userSpaceOnUse">
<stop stop-color="#934DE6"/>
<stop offset="1" stop-color="#6229CE"/>
</linearGradient>
<linearGradient id="paint2_linear" x1="219.822" y1="905.525" x2="242.803" y2="918.907" gradientUnits="userSpaceOnUse">
<stop stop-color="#FFCFCB"/>
<stop offset="1" stop-color="#D77E8E"/>
</linearGradient>
<linearGradient id="paint3_linear" x1="242.911" y1="899.192" x2="206.732" y2="1002.76" gradientUnits="userSpaceOnUse">
<stop stop-color="#FF7A46"/>
<stop offset="1" stop-color="#FF5946"/>
</linearGradient>
<linearGradient id="paint4_linear" x1="512.648" y1="659.039" x2="162.261" y2="682.865" gradientUnits="userSpaceOnUse">
<stop stop-color="#3958D7"/>
<stop offset="0.9851" stop-color="#5771DD"/>
</linearGradient>
<linearGradient id="paint5_linear" x1="83.8475" y1="493.122" x2="90.4859" y2="519.653" gradientUnits="userSpaceOnUse">
<stop stop-color="#FFCFCB"/>
<stop offset="1" stop-color="#D77E8E"/>
</linearGradient>
<linearGradient id="paint6_linear" x1="111.18" y1="512.742" x2="-0.159159" y2="530.904" gradientUnits="userSpaceOnUse">
<stop stop-color="#FF7A46"/>
<stop offset="1" stop-color="#FF5946"/>
</linearGradient>
<linearGradient id="paint7_linear" x1="298.406" y1="540.383" x2="182.595" y2="312.051" gradientUnits="userSpaceOnUse">
<stop stop-color="#3958D7"/>
<stop offset="0.9851" stop-color="#5771DD"/>
</linearGradient>
<linearGradient id="paint8_linear" x1="465.866" y1="266.427" x2="550.732" y2="462.138" gradientUnits="userSpaceOnUse">
<stop stop-color="#934DE6"/>
<stop offset="1" stop-color="#6229CE"/>
</linearGradient>
<linearGradient id="paint9_linear" x1="523.458" y1="237.151" x2="518.785" y2="82.2347" gradientUnits="userSpaceOnUse">
<stop stop-color="#FFCFCB"/>
<stop offset="1" stop-color="#D77E8E"/>
</linearGradient>
<linearGradient id="paint10_linear" x1="640.415" y1="23.5578" x2="579.499" y2="65.0459" gradientUnits="userSpaceOnUse">
<stop stop-color="#FF7A46"/>
<stop offset="1" stop-color="#FF5946"/>
</linearGradient>
<linearGradient id="paint11_linear" x1="633.024" y1="618.311" x2="641.298" y2="686.865" gradientUnits="userSpaceOnUse">
<stop stop-color="#FFCFCB"/>
<stop offset="1" stop-color="#D77E8E"/>
</linearGradient>
<linearGradient id="paint12_linear" x1="605.324" y1="218.956" x2="588.555" y2="480.1" gradientUnits="userSpaceOnUse">
<stop stop-color="#934DE6"/>
<stop offset="1" stop-color="#6229CE"/>
</linearGradient>
</defs>
</svg>
