<svg width="538" height="1205" viewBox="0 0 538 1205" fill="none" xmlns="http://www.w3.org/2000/svg">
<path d="M40.1667 71.2245C36.7467 64.9345 32.6864 59.1145 28.0964 53.8945C24.8564 50.2045 21.2768 46.7143 19.2268 42.0243C17.6268 38.3543 17.0165 34.0643 14.9065 30.7743C13.3265 28.3043 10.9867 26.5544 9.37671 24.1044C8.93671 23.4444 8.56638 22.4946 9.03638 21.7646C9.60638 20.8846 10.7764 21.1744 11.5764 21.6244C15.7764 23.9644 19.3066 27.5846 21.7366 32.0346C22.4766 31.2546 22.1466 29.9646 21.7366 29.0346C19.7866 24.6146 17.2563 20.5546 14.2463 17.0146C9.63634 11.5846 3.81671 7.24465 0.626709 0.594648C1.11671 -0.205352 2.16647 0.0544918 2.88647 0.434492C12.1565 5.24449 20.4966 11.7846 28.7966 18.2846C31.6966 20.5546 34.6366 22.8744 36.7566 26.0444C39.9966 30.8944 41.0066 37.2444 42.7366 43.0844C43.3466 45.1544 44.0867 47.2346 45.4167 48.7846C46.7267 50.3246 48.5263 51.2344 49.9963 52.5844C52.5163 54.8844 54.1468 58.4844 57.2268 59.8144C57.7468 60.0344 58.3267 60.2143 58.6667 60.6943C59.3867 61.7243 58.5766 63.3342 57.7366 64.4242C53.1166 70.3242 46.3567 74.1144 39.6467 74.5444" fill="url(#paint0_linear)"/>
<path d="M32.5667 85.7449C46.0267 133.695 58.7567 159.155 78.3367 187.695C99.2567 218.195 200.516 295.875 233.076 310.945C253.346 322.565 293.416 353.815 271.786 260.845C282.716 234.175 228.997 237.245 209.627 223.765C186.677 207.585 168.067 194.275 145.457 176.605C120.957 157.555 95.6965 129.365 78.1965 102.895C66.8965 86.1048 57.6964 67.2746 51.3464 46.2546C48.5164 36.5946 38.7464 46.7348 33.7864 56.4348C27.9764 67.8148 31.7467 76.9749 32.5667 85.7449Z" fill="url(#paint1_linear)"/>
<path d="M242.717 1090.37L234.427 1142.15L204.357 1167.5L212.437 1095.11L242.717 1090.37Z" fill="url(#paint2_linear)"/>
<path d="M215.937 1144.2C219.717 1144.07 223.526 1142.96 226.586 1140.73C228.426 1139.38 229.957 1137.67 231.707 1136.21C233.457 1134.75 235.536 1133.5 237.816 1133.39C238.626 1133.35 239.476 1133.47 240.156 1133.89C241.376 1134.63 241.867 1136.2 241.707 1137.61C241.547 1139.02 240.856 1140.33 240.156 1141.59C238.556 1144.46 236.817 1147.29 234.457 1149.61C232.097 1151.92 229.056 1153.69 225.756 1153.99C222.556 1154.28 219.447 1153.18 216.417 1152.21C212.777 1151.04 209.066 1150.02 205.596 1148.44C203.216 1147.36 200.936 1146 199.016 1144.24C198.366 1143.64 195.257 1140.93 196.207 1139.77C197.427 1138.26 204.757 1142.25 206.227 1142.72C209.347 1143.72 212.637 1144.32 215.937 1144.2Z" fill="#0A0652"/>
<path d="M248.827 1167.58C248.797 1169.91 248.207 1172.82 245.917 1173.46C244.827 1173.76 243.687 1173.42 242.617 1173.12C225.497 1168.28 207.037 1172.64 189.817 1177.73C172.597 1182.83 154.957 1188.74 137.187 1186.97C131.027 1186.36 125.017 1184.82 119.077 1183.16C117.507 1182.72 115.657 1181.98 115.427 1180.38C115.347 1179.82 115.487 1179.27 115.687 1178.73C114.767 1180.31 114.057 1182.02 113.377 1183.7C113.097 1184.39 112.817 1185.12 112.917 1185.84C113.147 1187.43 115.027 1188.18 116.637 1188.61C122.697 1190.27 128.817 1191.8 135.107 1192.4C153.237 1194.15 171.107 1193.84 188.677 1188.72C195.217 1186.81 201.967 1185.55 208.777 1185.54C217.467 1185.54 226.157 1187.99 234.877 1188.31C238.097 1188.43 243.787 1189.05 246.577 1186.88C249.987 1184.23 248.947 1176.69 249.007 1172.88C249.037 1170.94 248.947 1169.01 248.807 1167.08C248.817 1167.26 248.837 1167.42 248.827 1167.58Z" fill="#0A0652"/>
<path d="M240.447 1133.59C237.787 1137.82 234.917 1142.12 230.707 1144.88C225.727 1148.14 219.396 1148.82 213.536 1147.97C208.616 1147.25 203.947 1145.55 199.357 1143.7C200.547 1142.05 201.627 1140.32 202.587 1138.54C204.127 1135.67 205.337 1132.34 204.957 1129.25C205.817 1126.59 206.067 1123.81 204.907 1121.35C204.457 1120.38 203.537 1119.41 202.467 1119.63C202.017 1119.72 201.637 1120.01 201.277 1120.29C198.507 1122.45 195.407 1124.47 192.917 1126.94C191.197 1128.65 189.807 1130.69 188.117 1132.44C183.007 1137.75 177.246 1142.54 172.246 1147.92C168.266 1151.57 164.167 1155.15 159.467 1157.83C151.067 1162.61 141.277 1164.21 131.737 1165.76C128.007 1166.36 124.067 1167.07 121.177 1169.49C118.517 1171.71 117.157 1175.05 115.887 1178.24C115.827 1178.4 115.757 1178.57 115.697 1178.73C115.507 1179.27 115.357 1179.82 115.437 1180.38C115.667 1181.97 117.507 1182.72 119.087 1183.16C125.027 1184.83 131.037 1186.36 137.197 1186.97C154.967 1188.74 172.606 1182.82 189.826 1177.73C207.046 1172.63 225.497 1168.28 242.627 1173.12C243.707 1173.42 244.837 1173.76 245.927 1173.46C248.217 1172.82 248.807 1169.91 248.837 1167.58C248.837 1167.42 248.826 1167.26 248.826 1167.1C248.896 1155.43 245.997 1143.81 240.447 1133.59Z" fill="url(#paint3_linear)"/>
<path d="M173.886 1163.68C172.136 1163.68 170.277 1163.24 168.377 1162.38C166.517 1161.53 164.856 1160.4 163.256 1159.31C162.546 1158.82 161.576 1158.17 161.036 1157.1C160.666 1156.39 160.946 1155.52 161.656 1155.15C162.356 1154.79 163.237 1155.06 163.607 1155.77C163.817 1156.18 164.386 1156.57 164.886 1156.91C166.386 1157.93 167.936 1158.98 169.576 1159.73C171.316 1160.52 172.927 1160.86 174.457 1160.75C175.317 1160.69 175.946 1161.29 176.006 1162.08C176.066 1162.87 175.476 1163.57 174.676 1163.63C174.416 1163.67 174.156 1163.68 173.886 1163.68Z" fill="#ECF2FE"/>
<path d="M183.877 1156.13C183.837 1156.13 183.796 1156.13 183.766 1156.13C178.516 1155.72 173.847 1152.75 170.087 1150.37C169.417 1149.94 169.217 1149.05 169.647 1148.37C170.077 1147.7 170.977 1147.5 171.647 1147.93C175.307 1150.25 179.456 1152.89 183.996 1153.24C184.796 1153.3 185.386 1154 185.326 1154.8C185.266 1155.55 184.627 1156.13 183.877 1156.13Z" fill="#ECF2FE"/>
<path d="M196.806 1147.91C194.116 1147.91 191.257 1147.13 188.527 1145.66C186.367 1144.49 184.226 1142.87 181.766 1140.56C181.186 1140.01 181.157 1139.1 181.707 1138.52C182.257 1137.94 183.166 1137.92 183.746 1138.46C186.016 1140.59 187.967 1142.08 189.897 1143.13C192.277 1144.41 194.817 1145.12 197.007 1145.03C197.017 1145.03 197.026 1145.03 197.036 1145.03C197.826 1145.03 198.467 1145.66 198.487 1146.45C198.507 1147.25 197.867 1147.91 197.067 1147.92C196.987 1147.91 196.896 1147.91 196.806 1147.91Z" fill="#ECF2FE"/>
<path d="M179.116 1165.96C181.346 1167.17 184.847 1170.01 183.127 1172.97C182.597 1173.88 181.577 1174.39 180.567 1174.7C177.887 1175.52 175.276 1176.08 174.466 1179.11C174.366 1179.49 174.336 1179.98 174.676 1180.19C174.906 1180.33 175.207 1180.27 175.477 1180.21C180.737 1178.94 186.046 1177.88 191.266 1176.45C197.076 1174.85 202.836 1173.04 208.746 1171.83C214.716 1170.62 220.936 1170.24 226.996 1170C232.356 1169.78 237.806 1169.23 243.076 1170.37C243.826 1170.53 244.637 1170.72 245.357 1170.44C246.687 1169.91 247.056 1168.14 247.116 1166.89C247.336 1162.32 246.116 1157.55 244.736 1153.24C244.366 1152.09 244.007 1150.85 242.627 1150.71C241.447 1150.58 240.167 1151.2 239.207 1151.83C235.827 1154.06 232.807 1156.78 229.357 1158.95C225.067 1161.64 220.207 1163.61 215.087 1162.8C210.677 1162.1 207.587 1159.28 204.647 1156.21C202.327 1153.79 200.376 1151.03 198.886 1148.04C198.696 1147.65 198.496 1147.24 198.136 1146.99C197.516 1146.55 196.566 1146.77 196.056 1147.34C195.546 1147.91 195.396 1148.73 195.496 1149.48C195.596 1150.23 195.926 1150.92 196.246 1151.6C197.176 1153.57 198.106 1155.54 199.036 1157.51C199.316 1158.1 199.596 1158.78 199.326 1159.39C198.186 1161.93 193.087 1159.68 191.627 1158.81C190.017 1157.85 188.566 1156.66 186.986 1155.64C186.596 1155.39 186.196 1155.14 185.736 1155.06C185.276 1154.97 184.756 1155.07 184.446 1155.42C184.116 1155.79 184.106 1156.33 184.176 1156.81C184.436 1158.63 185.606 1160.2 187.006 1161.39C188.576 1162.72 191.237 1163.51 192.147 1165.39C193.507 1168.2 186.977 1167.49 186.027 1167.11C183.587 1166.14 181.607 1164.34 179.187 1163.34C178.617 1163.11 178.016 1162.91 177.406 1162.92C177.136 1162.93 176.846 1162.98 176.616 1163.13C176.316 1163.33 176.157 1163.72 176.227 1164.06C176.427 1165.03 178.336 1165.54 179.116 1165.96Z" fill="#FFB900"/>
<path d="M236.846 503.305L209.326 1109.96L245.927 1110.03L368.417 504.245L236.846 503.305Z" fill="url(#paint4_linear)"/>
<path d="M387.826 1086.67L388.717 1139.04L363.507 1168.79L358.806 1096.14L387.826 1086.67Z" fill="url(#paint5_linear)"/>
<path d="M370.847 1143.99C374.547 1143.26 378.116 1141.57 380.746 1138.88C382.326 1137.26 383.536 1135.33 384.996 1133.61C386.456 1131.89 388.297 1130.33 390.527 1129.86C391.317 1129.69 392.177 1129.67 392.927 1129.98C394.257 1130.52 395.017 1131.98 395.107 1133.4C395.197 1134.82 394.747 1136.22 394.277 1137.57C393.207 1140.65 391.976 1143.72 390.056 1146.38C388.136 1149.04 385.446 1151.26 382.246 1152.08C379.146 1152.87 375.887 1152.28 372.727 1151.81C368.937 1151.23 365.097 1150.82 361.397 1149.81C358.857 1149.12 356.377 1148.14 354.177 1146.71C353.427 1146.22 349.897 1144.04 350.617 1142.75C351.557 1141.07 359.486 1143.84 361.016 1144.08C364.266 1144.56 367.607 1144.63 370.847 1143.99Z" fill="#0A0652"/>
<path d="M407.377 1161.82C407.757 1164.13 407.687 1167.08 405.537 1168.08C404.517 1168.55 403.337 1168.4 402.227 1168.27C384.497 1166.21 367.057 1173.43 350.977 1181.18C334.897 1188.93 318.537 1197.56 300.697 1198.63C294.517 1199 288.327 1198.44 282.177 1197.74C280.547 1197.55 278.607 1197.11 278.097 1195.58C277.917 1195.05 277.967 1194.47 278.067 1193.91C277.437 1195.61 277.037 1197.42 276.657 1199.18C276.507 1199.9 276.347 1200.67 276.577 1201.36C277.087 1202.89 279.067 1203.33 280.727 1203.51C286.987 1204.19 293.297 1204.72 299.597 1204.32C317.777 1203.18 335.347 1200.03 351.777 1192.2C357.897 1189.28 364.327 1186.97 371.037 1185.88C379.607 1184.5 388.607 1185.54 397.257 1184.48C400.457 1184.09 406.167 1183.8 408.547 1181.21C411.447 1178.06 409.107 1170.79 408.487 1167.03C408.177 1165.11 407.747 1163.22 407.277 1161.34C407.307 1161.51 407.347 1161.67 407.377 1161.82Z" fill="#0A0652"/>
<path d="M393.157 1129.64C391.267 1134.23 389.197 1138.93 385.527 1142.32C381.187 1146.32 375.067 1148 369.137 1148.09C364.167 1148.16 359.257 1147.22 354.407 1146.12C355.287 1144.3 356.057 1142.43 356.687 1140.52C357.707 1137.44 358.317 1133.97 357.397 1130.99C357.777 1128.23 357.537 1125.45 355.967 1123.21C355.347 1122.33 354.277 1121.51 353.257 1121.9C352.827 1122.06 352.507 1122.41 352.197 1122.74C349.847 1125.31 347.147 1127.79 345.117 1130.62C343.717 1132.58 342.707 1134.81 341.347 1136.81C337.237 1142.85 332.397 1148.49 328.407 1154.59C325.117 1158.82 321.707 1163 317.537 1166.38C310.087 1172.43 300.717 1175.55 291.577 1178.59C288.007 1179.78 284.247 1181.09 281.817 1183.94C279.587 1186.56 278.817 1190.06 278.137 1193.4C278.107 1193.57 278.067 1193.74 278.037 1193.91C277.937 1194.47 277.897 1195.04 278.067 1195.58C278.577 1197.12 280.517 1197.56 282.147 1197.74C288.297 1198.44 294.487 1199 300.667 1198.63C318.507 1197.56 334.857 1188.93 350.947 1181.18C367.027 1173.43 384.467 1166.21 402.197 1168.27C403.307 1168.4 404.497 1168.55 405.507 1168.08C407.657 1167.08 407.727 1164.13 407.347 1161.82C407.317 1161.66 407.277 1161.51 407.257 1161.35C405.307 1149.84 400.417 1138.84 393.157 1129.64Z" fill="url(#paint6_linear)"/>
<path d="M330.987 1170C329.757 1170 328.467 1169.82 327.107 1169.45C325.117 1168.9 323.287 1168.06 321.527 1167.24C320.707 1166.86 319.677 1166.39 318.967 1165.43C318.487 1164.79 318.617 1163.89 319.257 1163.4C319.887 1162.92 320.796 1163.05 321.286 1163.69C321.566 1164.07 322.177 1164.35 322.757 1164.62C324.407 1165.39 326.127 1166.18 327.877 1166.66C329.737 1167.16 331.417 1167.24 332.887 1166.89C333.687 1166.69 334.447 1167.19 334.627 1167.96C334.807 1168.74 334.327 1169.52 333.557 1169.7C332.727 1169.9 331.867 1170 330.987 1170Z" fill="#ECF2FE"/>
<path d="M339.837 1160.89C335.057 1160.89 330.457 1158.93 326.707 1157.33C325.977 1157.02 325.636 1156.17 325.946 1155.43C326.256 1154.69 327.106 1154.36 327.846 1154.67C331.856 1156.38 336.446 1158.29 340.966 1157.95C341.866 1157.91 342.467 1158.48 342.527 1159.28C342.587 1160.07 341.996 1160.78 341.196 1160.84C340.736 1160.88 340.277 1160.89 339.837 1160.89Z" fill="#ECF2FE"/>
<path d="M350.227 1150.86C348.237 1150.86 346.146 1150.49 344.056 1149.77C341.706 1148.95 339.386 1147.74 336.506 1145.82C335.836 1145.38 335.667 1144.48 336.107 1143.82C336.557 1143.15 337.457 1142.98 338.107 1143.42C340.767 1145.19 342.896 1146.31 344.996 1147.04C347.556 1147.93 350.106 1148.2 352.346 1147.79C353.176 1147.66 353.886 1148.17 354.026 1148.96C354.166 1149.75 353.647 1150.5 352.857 1150.64C352.017 1150.79 351.127 1150.86 350.227 1150.86Z" fill="#ECF2FE"/>
<path d="M338.346 1171.28C340.756 1172.12 344.706 1174.36 343.536 1177.55C343.176 1178.53 342.256 1179.2 341.306 1179.66C338.806 1180.89 336.327 1181.86 336.067 1184.98C336.037 1185.37 336.097 1185.86 336.467 1186.01C336.717 1186.11 337.007 1186.01 337.257 1185.9C342.227 1183.82 347.277 1181.93 352.167 1179.69C357.617 1177.2 362.977 1174.49 368.587 1172.37C374.257 1170.23 380.326 1168.87 386.266 1167.67C391.516 1166.61 396.787 1165.2 402.187 1165.48C402.957 1165.52 403.786 1165.58 404.446 1165.19C405.666 1164.46 405.716 1162.65 405.556 1161.41C404.976 1156.87 402.937 1152.35 400.817 1148.33C400.247 1147.25 399.687 1146.09 398.297 1146.17C397.107 1146.23 395.957 1147.04 395.127 1147.82C392.187 1150.55 389.686 1153.72 386.656 1156.4C382.896 1159.73 378.457 1162.45 373.257 1162.46C368.787 1162.47 365.246 1160.18 361.806 1157.62C359.096 1155.6 356.686 1153.19 354.696 1150.48C354.436 1150.13 354.167 1149.76 353.777 1149.57C353.087 1149.24 352.196 1149.6 351.786 1150.24C351.376 1150.88 351.376 1151.71 351.616 1152.43C351.856 1153.15 352.297 1153.78 352.727 1154.4C353.987 1156.19 355.247 1157.99 356.507 1159.78C356.887 1160.32 357.276 1160.95 357.116 1161.58C356.436 1164.27 351.017 1162.86 349.417 1162.23C347.657 1161.54 346.016 1160.6 344.286 1159.83C343.866 1159.64 343.417 1159.47 342.957 1159.45C342.497 1159.44 341.996 1159.62 341.746 1160.01C341.486 1160.42 341.567 1160.96 341.727 1161.42C342.307 1163.17 343.726 1164.53 345.326 1165.49C347.106 1166.55 349.866 1166.91 351.096 1168.62C352.926 1171.17 346.366 1171.5 345.366 1171.29C342.786 1170.73 340.527 1169.26 337.957 1168.65C337.357 1168.51 336.737 1168.41 336.127 1168.52C335.857 1168.57 335.586 1168.66 335.386 1168.85C335.126 1169.1 335.037 1169.5 335.167 1169.83C335.527 1170.79 337.506 1170.99 338.346 1171.28Z" fill="#FFB900"/>
<path d="M279.286 508.725L358.337 1111.27L394.437 1105.54L395.116 503.305L279.286 508.725Z" fill="url(#paint7_linear)"/>
<path d="M278.547 227.575C286.657 226.225 294.997 225.735 303.487 226.095C325.607 227.035 348.607 221.855 363.107 240.845C375.087 256.515 374.467 278.785 368.627 296.745C364.937 308.095 365.836 318.945 365.786 330.765C365.706 351.505 366.937 372.245 369.457 392.825C374.497 433.985 384.687 474.524 399.857 513.134C401.607 517.594 401.977 522.604 400.176 527.044C395.417 538.824 381.776 536.554 371.386 533.364C352.886 527.684 352.416 519.825 331.886 518.535C302.546 516.675 272.376 521.554 243.056 522.064C240.146 522.114 237.187 521.314 234.987 519.404C222.597 508.664 235.397 479.354 238.527 466.834C242.907 449.304 245.706 431.324 245.826 413.254C246.116 368.744 230.206 325.464 229.176 280.964C228.826 265.874 224.207 251.565 238.967 241.325C250.327 233.435 265.077 229.815 278.547 227.575Z" fill="url(#paint8_linear)"/>
<path d="M536.587 575.805C529.967 567.735 521.857 560.914 513.777 554.134C510.957 551.764 508.077 549.364 504.547 547.944C499.137 545.774 492.716 546.094 486.636 545.604C484.476 545.434 482.297 545.134 480.507 544.154C478.737 543.184 477.466 541.615 475.846 540.455C475.356 540.105 474.786 539.835 474.246 539.535C473.146 540.785 471.856 541.895 470.366 542.785C469.536 543.915 472.217 543.925 471.337 544.975C470.727 545.705 468.856 547.965 468.116 548.555C467.096 549.565 465.706 551.404 464.536 552.134C463.636 553.424 463.387 553.714 462.127 554.714C468.987 556.764 473.016 558.744 479.076 562.154C483.356 564.564 487.507 567.344 492.527 568.384C496.447 569.194 500.767 568.904 504.427 570.294C507.177 571.334 509.366 573.264 512.096 574.334C512.836 574.624 513.837 574.795 514.457 574.185C515.207 573.445 514.676 572.364 514.076 571.674C510.926 568.054 506.657 565.335 501.797 563.875C502.407 562.995 503.737 563.044 504.727 563.254C509.457 564.254 513.946 565.884 518.036 568.104C524.296 571.504 529.746 576.294 536.906 578.044C537.576 577.414 537.107 576.435 536.587 575.805Z" fill="url(#paint9_linear)"/>
<path d="M468.147 520.444C462.937 475.724 424.826 410.625 408.486 381.095C398.786 363.565 396.176 343.335 393.516 323.785C389.596 294.945 378.746 250.975 354.196 232.345C341.756 222.905 310.986 232.814 304.176 243.904C296.266 256.784 312.797 274.294 317.067 288.464C326.987 321.394 335.076 357.305 351.757 387.625C364.957 411.615 385.527 430.245 400.777 452.855C421.467 483.545 438.627 516.524 453.477 550.384C454.497 552.704 455.897 555.355 458.397 555.745C460.337 556.045 462.157 554.835 463.667 553.585C478.997 540.955 470.097 537.194 468.147 520.444Z" fill="url(#paint10_linear)"/>
<path d="M250.987 231.134C251.287 235.624 251.957 235.544 254.137 239.584C255.917 242.894 258.546 245.914 262.056 247.794C265.566 249.674 270.016 250.275 273.766 248.895C276.556 247.875 278.737 245.894 280.927 244.044C283.687 241.724 286.597 239.534 289.627 237.504C291.367 236.334 293.217 235.155 294.207 233.415C295.197 231.685 295.197 229.644 295.187 227.694C295.117 218.994 295.047 210.295 294.977 201.595C294.947 197.245 294.907 192.894 294.877 188.544C294.847 184.964 295.827 179.635 294.477 176.375C280.007 180.855 271.757 181.145 257.927 187.055C255.877 187.705 255.306 202.894 255.056 204.834C254.046 212.844 250.467 223.324 250.987 231.134Z" fill="url(#paint11_linear)"/>
<path d="M365.006 177.605C355.436 192.185 340.066 203.555 323.256 208.895C299.426 216.465 269.686 212.694 248.036 200.114C223.956 186.124 250.426 172.735 244.596 158.565C238.786 144.415 258.996 149.084 274.496 131.364C277.786 127.604 300.156 103.665 304.236 100.745C327.176 84.3648 363.676 103.535 371.986 127.265C378.326 145.335 374.546 163.065 365.006 177.605Z" fill="#FFCFCB"/>
<path d="M277.957 138.495C279.337 139.525 280.546 140.685 281.076 142.685C281.166 143.045 281.227 144.455 281.547 144.685C281.877 144.915 282.536 144.285 282.366 144.105C282.646 144.405 283.786 140.175 281.156 137.555C280.006 135.475 276.886 133.605 274.536 134.535C274.356 134.605 274.167 134.704 274.087 134.884C273.987 135.134 274.157 135.405 274.337 135.605C275.437 136.795 276.757 137.595 277.957 138.495Z" fill="#750114"/>
<path d="M271.807 140.815C272.507 140.825 273.127 141.465 273.167 142.165C273.287 144.225 270.267 144.145 269.437 142.745C268.717 141.515 269.457 139.504 271.087 139.884C272.157 140.134 272.927 141.104 273.367 142.114" fill="#000614"/>
<path d="M248.366 181.484C247.336 181.484 246.266 181.174 245.256 180.534C243.336 179.324 241.876 177.224 240.816 175.534C240.536 175.084 240.666 174.484 241.126 174.204C241.566 173.934 242.167 174.064 242.457 174.514C243.407 176.034 244.706 177.904 246.286 178.914C247.386 179.604 248.996 179.964 250.196 178.874C250.596 178.514 251.196 178.544 251.556 178.934C251.916 179.334 251.886 179.944 251.496 180.294C250.616 181.084 249.526 181.484 248.366 181.484Z" fill="#D77E8E"/>
<path opacity="0.31" d="M264.736 169.674C261.046 170.794 257.907 173.785 256.897 177.505C255.887 181.225 257.167 185.544 260.227 187.904C262.007 189.284 264.247 189.955 266.477 190.255C268.647 190.555 270.906 190.514 272.996 189.864C276.846 188.664 279.936 185.255 280.746 181.305C282.736 171.655 272.866 167.214 264.736 169.674Z" fill="#D77E8E"/>
<path d="M431.757 372.214C428.797 370.404 426.197 368.194 424.437 365.364C423.827 364.374 424.737 363.095 425.877 363.345C434.137 365.175 442.267 367.605 450.177 370.625C447.167 366.485 443.437 362.865 439.207 359.975C430.117 353.765 415.697 350.185 410.857 339.265C406.457 329.325 414.557 318.955 410.487 308.975C406.427 299.005 393.486 292.204 395.246 279.864C396.946 267.884 412.477 259.595 406.407 246.395C403.227 239.485 394.817 236.005 392.027 228.935C388.797 220.745 394.407 211.265 391.917 202.825C390.057 196.515 384.007 192.054 382.357 185.694C379.507 174.694 392.317 163.534 387.387 153.194C386.037 150.354 383.277 148.514 380.857 146.504C375.357 141.934 375.407 135.885 375.917 129.225C376.367 123.345 376.717 117.634 375.067 111.864C372.667 103.464 365.197 96.6545 357.757 92.6245C353.017 90.0645 347.457 88.2344 341.937 87.4844C336.647 86.7644 329.507 88.5648 325.117 84.8448C319.727 80.2848 321.997 71.6648 321.437 65.5948C320.707 57.6848 312.757 52.4748 305.417 51.5948C286.807 49.3548 273.217 66.5743 271.537 83.6543C270.697 92.2243 272.847 102.065 277.367 109.805C277.957 110.825 276.957 112.044 275.837 111.694C275.797 111.684 275.747 111.664 275.707 111.654C273.767 111.064 270.837 104.934 269.957 106.754C267.647 111.534 270.547 117.084 274.307 120.174C277.737 122.994 281.847 124.134 285.907 125.674C291.927 127.954 288.897 135.555 291.207 141.555C293.517 147.555 305.507 153.375 310.167 148.935C311.817 151.625 305.326 154.764 302.746 152.944C303.126 154.544 305.916 156.044 308.246 156.444C309.166 156.604 309.717 157.584 309.227 158.384C307.687 160.924 306.577 163.714 305.957 166.614C305.707 167.774 306.957 168.674 307.967 168.044L313.567 164.555C314.127 164.205 314.907 164.295 315.307 164.825C319.837 170.855 315.317 180.564 308.557 184.544C301.457 188.724 292.787 189.265 285.217 192.555C272.007 198.295 263.527 212.225 261.707 226.515C259.887 240.805 263.916 255.305 270.246 268.245C271.706 271.225 273.306 274.224 274.246 277.384C274.306 277.604 274.317 277.835 274.277 278.055C272.827 285.335 271.547 292.595 274.477 299.205C281.587 315.235 306.177 313.595 318.047 326.495C326.287 335.445 326.337 348.954 330.357 360.444C334.657 372.714 342.667 384.715 352.467 393.625C359.037 399.595 367.627 405.424 376.367 407.464C379.407 408.174 387.507 409.685 388.807 405.605C389.807 402.435 371.187 384.474 382.767 386.734C402.917 390.664 435.317 420.894 456.647 409.404C457.417 408.984 457.557 407.865 456.897 407.285C455.977 406.475 454.977 405.745 453.927 405.075C452.897 404.425 453.257 402.835 454.467 402.685C460.957 401.865 469.287 398.104 472.257 394.924C474.267 392.774 474.957 389.095 472.947 386.955C471.757 385.695 469.967 385.245 468.287 384.845C459.097 382.635 450.047 379.875 441.197 376.585C437.997 375.395 434.697 374.004 431.757 372.214Z" fill="url(#paint12_linear)"/>
<path d="M391.547 398.934C387.297 399.084 389.387 401.015 390.737 402.535C392.797 404.855 394.106 406.844 395.826 409.434C396.956 411.134 399.337 412.614 401.417 411.854C398.337 408.884 397.777 398.704 391.547 398.934Z" fill="url(#paint13_linear)"/>
<g opacity="0.31">
<g opacity="0.31">
<path opacity="0.31" d="M368.326 231.285C368.316 231.285 368.306 231.285 368.296 231.285C365.096 231.165 361.906 229.645 359.536 227.095C357.446 224.845 356.346 222.164 356.446 219.544C356.496 218.234 356.816 216.964 357.116 215.734C357.606 213.754 358.066 211.874 357.346 210.114C356.586 208.264 354.736 206.974 352.776 205.614C351.486 204.714 350.156 203.784 349.066 202.634C345.836 199.234 345.446 194.804 345.066 190.524C344.716 186.524 344.376 182.744 341.876 179.814C339.816 177.384 336.577 175.994 333.437 174.644C332.617 174.294 331.786 173.934 330.986 173.564C328.406 172.364 322.376 169.024 322.176 163.834C322.046 160.454 324.336 158.055 326.546 155.745C327.586 154.655 328.666 153.525 329.426 152.345C330.226 151.095 330.787 149.174 329.687 147.884C329.167 147.274 328.316 146.854 327.426 146.444C324.366 145.034 320.026 144.574 315.826 144.124C309.946 143.494 304.866 142.965 303.696 139.845C303.516 139.345 303.766 138.794 304.256 138.604C304.756 138.424 305.306 138.665 305.496 139.165C306.246 141.165 311.216 141.695 316.026 142.205C320.376 142.665 324.887 143.155 328.227 144.685C329.277 145.175 330.367 145.714 331.147 146.624C332.937 148.714 332.206 151.564 331.046 153.374C330.186 154.714 329.047 155.914 327.937 157.064C325.917 159.184 323.996 161.184 324.096 163.754C324.256 167.884 329.526 170.764 331.796 171.814C332.576 172.174 333.386 172.524 334.196 172.874C337.536 174.314 340.986 175.804 343.336 178.564C346.236 181.974 346.617 186.234 346.977 190.354C347.347 194.494 347.687 198.394 350.457 201.314C351.407 202.314 352.656 203.195 353.866 204.035C355.966 205.495 358.136 207.014 359.116 209.384C360.076 211.724 359.517 213.994 358.977 216.194C358.687 217.384 358.406 218.504 358.366 219.624C358.286 221.694 359.226 223.935 360.946 225.785C362.936 227.935 365.706 229.264 368.366 229.364C368.896 229.384 369.316 229.834 369.296 230.364C369.266 230.874 368.836 231.285 368.326 231.285Z" fill="#6229CE"/>
</g>
<g opacity="0.31">
<path opacity="0.31" d="M352.446 180.354C352.326 180.354 352.207 180.335 352.087 180.285C349.277 179.175 347.476 176.184 346.996 171.874L346.886 170.845C346.636 168.325 346.376 165.714 344.656 163.904C343.466 162.654 341.757 161.955 339.957 161.205C339.447 160.995 338.937 160.784 338.437 160.564C336.537 159.714 333.287 157.835 332.957 154.785C332.717 152.625 334.046 150.964 335.216 149.504C335.606 149.024 335.997 148.534 336.317 148.044C338.837 144.194 337.396 138.164 333.036 134.314C329.166 130.884 323.437 128.984 317.087 129.274C311.277 129.494 307.777 130.614 302.707 132.444C302.197 132.624 301.656 132.364 301.466 131.864C301.286 131.364 301.547 130.814 302.047 130.624C307.297 128.734 310.916 127.564 317.016 127.334C323.826 127.114 330.077 129.094 334.317 132.854C339.367 137.324 340.956 144.465 337.926 149.095C337.566 149.645 337.146 150.174 336.716 150.714C335.686 151.994 334.716 153.215 334.866 154.575C335.106 156.745 337.996 158.255 339.216 158.805C339.706 159.025 340.197 159.225 340.687 159.435C342.597 160.225 344.577 161.045 346.047 162.595C348.227 164.885 348.536 167.955 348.806 170.665L348.906 171.674C349.136 173.734 349.947 177.374 352.797 178.504C353.287 178.704 353.527 179.264 353.337 179.754C353.197 180.124 352.836 180.354 352.446 180.354Z" fill="#6229CE"/>
</g>
<g opacity="0.31">
<path opacity="0.31" d="M290.597 127.084C290.377 127.084 290.147 127.004 289.967 126.854C289.567 126.504 289.517 125.895 289.867 125.495C291.847 123.205 293.887 120.845 295.137 118.125C296.477 115.195 296.647 112.195 295.597 109.685C295.057 108.375 294.207 107.185 293.297 105.915C292.387 104.635 291.447 103.325 290.817 101.845C289.967 99.8347 290.097 97.3744 291.157 95.7144C291.937 94.4844 293.157 93.7844 294.597 93.7344C295.187 93.7644 295.577 94.1346 295.597 94.6646C295.617 95.1946 295.197 95.6446 294.667 95.6646C293.867 95.6946 293.237 96.0644 292.787 96.7544C292.067 97.8844 291.997 99.6647 292.607 101.095C293.147 102.375 293.987 103.554 294.877 104.794C295.807 106.094 296.767 107.444 297.387 108.944C298.637 111.954 298.457 115.504 296.897 118.924C295.537 121.894 293.397 124.364 291.337 126.754C291.137 126.974 290.867 127.084 290.597 127.084Z" fill="#6229CE"/>
</g>
<g opacity="0.31">
<path opacity="0.31" d="M290.596 127.084C290.296 127.084 290.006 126.945 289.816 126.685C289.506 126.255 289.596 125.644 290.026 125.334C291.476 124.284 292.866 124.264 294.246 124.294C296.886 124.324 300.086 124.315 305.746 115.705C306.536 114.505 307.066 113.144 307.636 111.714C308.396 109.774 309.186 107.764 310.676 106.114C313.346 103.164 318.526 101.595 322.276 104.205C322.706 104.515 322.816 105.114 322.516 105.544C322.206 105.984 321.606 106.085 321.176 105.785C318.396 103.835 314.236 105.044 312.116 107.404C310.866 108.794 310.167 110.545 309.437 112.415C308.867 113.875 308.266 115.395 307.366 116.765C301.126 126.255 297.266 126.285 294.246 126.225C293.036 126.235 292.106 126.214 291.176 126.894C290.986 127.024 290.796 127.084 290.596 127.084Z" fill="#6229CE"/>
</g>
<g opacity="0.31">
<path opacity="0.31" d="M291.366 287.415C291.316 287.415 291.266 287.414 291.216 287.404C290.686 287.314 290.337 286.825 290.417 286.295C291.377 280.415 290.526 274.214 289.716 268.214C289.456 266.294 289.196 264.385 288.986 262.475C287.826 251.765 289.297 244.074 293.457 238.964C296.177 235.624 299.887 233.685 303.477 231.825L303.716 231.694C307.516 229.714 310.846 227.814 313.146 224.654C315.306 221.684 316.416 216.794 314.356 213.214C314.096 212.754 314.247 212.165 314.707 211.895C315.167 211.635 315.756 211.785 316.026 212.245C318.616 216.745 317.157 222.415 314.707 225.785C312.167 229.275 308.476 231.375 304.606 233.395L304.366 233.524C300.946 235.304 297.416 237.144 294.946 240.174C291.176 244.794 289.816 252.224 290.906 262.254C291.106 264.144 291.366 266.044 291.626 267.944C292.466 274.084 293.326 280.445 292.326 286.595C292.246 287.075 291.836 287.415 291.366 287.415Z" fill="#6229CE"/>
</g>
<g opacity="0.31">
<path opacity="0.31" d="M389.757 368.705C389.617 368.705 389.477 368.674 389.337 368.614C383.317 365.714 380.276 358.425 382.846 353.015C383.076 352.525 383.657 352.325 384.127 352.555C384.607 352.785 384.817 353.354 384.587 353.834C382.497 358.244 385.166 364.464 390.176 366.874C390.656 367.104 390.857 367.684 390.627 368.164C390.467 368.514 390.117 368.705 389.757 368.705Z" fill="#6229CE"/>
</g>
</g>
<g opacity="0.35">
<g opacity="0.35">
<path opacity="0.35" d="M332.556 103.614C332.226 103.614 331.907 103.445 331.727 103.145C331.457 102.685 331.606 102.095 332.056 101.825C335.026 100.055 338.256 98.4146 341.716 98.4146C342.706 98.4146 343.676 98.5547 344.596 98.8247C345.596 99.1147 346.576 99.5846 347.496 100.205C347.936 100.505 348.046 101.104 347.756 101.544C347.456 101.984 346.857 102.095 346.417 101.805C345.667 101.295 344.876 100.914 344.056 100.674C343.306 100.454 342.526 100.345 341.716 100.345C338.726 100.345 335.776 101.854 333.046 103.484C332.896 103.564 332.726 103.614 332.556 103.614Z" fill="#BA9AFF"/>
</g>
<g opacity="0.35">
<path opacity="0.35" d="M350.156 298.274C349.966 298.274 349.777 298.214 349.607 298.104C346.947 296.254 345.346 292.914 345.346 289.164C345.356 288.474 345.387 288.004 345.437 287.544C345.497 287.014 345.976 286.614 346.496 286.684C347.026 286.744 347.417 287.214 347.357 287.744C347.317 288.154 347.287 288.564 347.277 288.984C347.277 292.294 348.556 295.044 350.696 296.524C351.136 296.834 351.246 297.424 350.946 297.864C350.756 298.124 350.456 298.274 350.156 298.274ZM348.737 273.404C348.217 273.404 347.777 272.984 347.777 272.454C347.697 267.574 346.547 262.534 344.467 257.894C344.257 257.404 344.467 256.834 344.957 256.614C345.447 256.404 346.017 256.614 346.237 257.104C348.417 261.984 349.627 267.284 349.717 272.424C349.727 272.954 349.306 273.394 348.766 273.404C348.746 273.404 348.737 273.404 348.737 273.404ZM337.536 245.174C337.186 245.174 336.836 244.974 336.676 244.644C335.636 242.554 335.046 240.634 334.866 238.784C334.816 238.354 334.806 237.914 334.806 237.484C334.806 234.594 335.696 231.934 336.766 229.014C336.946 228.514 337.497 228.254 338.007 228.444C338.507 228.624 338.766 229.174 338.576 229.684C337.566 232.434 336.737 234.914 336.737 237.494C336.737 237.864 336.756 238.234 336.786 238.604C336.946 240.214 337.476 241.914 338.406 243.794C338.646 244.274 338.447 244.854 337.977 245.084C337.827 245.144 337.686 245.174 337.536 245.174ZM338.437 215.454C338.087 215.454 337.746 215.264 337.576 214.934C335.476 210.864 331.307 207.414 327.217 204.234C326.797 203.904 326.717 203.304 327.047 202.884C327.367 202.454 327.977 202.394 328.397 202.714C332.657 206.024 337.007 209.624 339.297 214.054C339.537 214.524 339.357 215.104 338.877 215.354C338.737 215.414 338.587 215.454 338.437 215.454Z" fill="#BA9AFF"/>
</g>
<g opacity="0.35">
<path opacity="0.35" d="M335.697 325.524C335.657 325.524 335.616 325.524 335.576 325.514C335.126 325.454 334.667 325.374 334.217 325.274C333.697 325.154 333.367 324.644 333.487 324.124C333.607 323.604 334.106 323.274 334.636 323.394C335.026 323.484 335.427 323.554 335.817 323.604C336.347 323.674 336.716 324.154 336.656 324.684C336.596 325.164 336.177 325.524 335.697 325.524ZM322.647 316.064C322.307 316.064 321.977 315.884 321.797 315.564C320.447 313.064 319.567 310.284 319.167 307.284C319.067 306.524 318.996 305.754 318.996 304.984C318.996 302.884 319.487 301.144 320.457 299.814C320.777 299.384 321.376 299.294 321.806 299.604C322.236 299.924 322.326 300.524 322.016 300.954C321.276 301.964 320.917 303.284 320.917 304.984C320.917 305.664 320.977 306.354 321.067 307.034C321.427 309.804 322.237 312.364 323.477 314.644C323.727 315.114 323.557 315.694 323.087 315.954C322.957 316.034 322.807 316.064 322.647 316.064Z" fill="#BA9AFF"/>
</g>
<g opacity="0.35">
<path opacity="0.35" d="M377.816 371.105C377.736 371.105 377.656 371.095 377.576 371.075C373.966 370.125 370.526 368.634 367.366 366.654C366.156 365.894 365.136 365.144 364.236 364.384C363.836 364.034 363.786 363.424 364.136 363.024C364.486 362.624 365.086 362.574 365.496 362.924C366.316 363.624 367.267 364.314 368.397 365.024C371.387 366.904 374.646 368.314 378.076 369.214C378.596 369.354 378.896 369.875 378.766 370.395C378.636 370.825 378.246 371.105 377.816 371.105ZM359.256 350.714C358.776 350.714 358.366 350.365 358.296 349.875L358.096 348.325C357.496 343.695 356.927 339.325 355.107 335.105C354.897 334.615 355.117 334.054 355.607 333.834C356.097 333.634 356.657 333.854 356.877 334.334C358.807 338.804 359.416 343.514 360.006 348.064L360.207 349.605C360.277 350.135 359.907 350.615 359.377 350.685C359.347 350.705 359.306 350.714 359.256 350.714Z" fill="#BA9AFF"/>
</g>
<g opacity="0.35">
<path opacity="0.35" d="M445.967 388.854C444.637 388.854 443.317 388.834 441.987 388.794C441.457 388.774 441.037 388.334 441.057 387.794C441.077 387.264 441.567 386.904 442.057 386.864C445.827 386.994 449.607 386.904 453.347 386.774C453.887 386.744 454.327 387.175 454.347 387.705C454.367 388.235 453.947 388.685 453.417 388.705C450.947 388.785 448.457 388.854 445.967 388.854ZM426.797 386.584C426.707 386.584 426.617 386.574 426.537 386.544C426.027 386.394 425.517 386.245 425.007 386.075C422.077 385.125 420.047 384.105 418.387 382.765C416.157 380.955 414.847 378.594 414.797 376.314C414.787 375.784 415.207 375.344 415.747 375.334C415.747 375.334 415.757 375.334 415.767 375.334C416.287 375.334 416.717 375.755 416.727 376.285C416.757 377.975 417.837 379.844 419.607 381.274C421.067 382.454 422.917 383.374 425.607 384.254C426.097 384.414 426.587 384.565 427.077 384.705C427.587 384.855 427.887 385.385 427.737 385.895C427.607 386.315 427.217 386.584 426.797 386.584Z" fill="#BA9AFF"/>
</g>
<g opacity="0.35">
<path opacity="0.35" d="M289.717 96.6142C289.597 96.6142 289.486 96.5947 289.366 96.5547C288.276 96.1247 286.157 94.4342 284.257 92.8842L283.806 92.5146C282.596 91.5446 281.877 90.2243 281.877 88.9843C281.877 88.8343 281.886 88.6846 281.906 88.5346C282.056 87.5346 282.647 86.6346 283.707 85.7846C284.437 85.1946 285.277 84.7147 286.177 84.3447C286.667 84.1347 287.227 84.3745 287.437 84.8745C287.637 85.3645 287.406 85.9243 286.906 86.1343C286.176 86.4343 285.507 86.8244 284.917 87.2944C284.257 87.8244 283.887 88.3344 283.817 88.8144C283.807 89.6444 284.266 90.4244 285.016 91.0244L285.477 91.3945C286.487 92.2245 289.176 94.4144 290.076 94.7544C290.576 94.9544 290.817 95.5044 290.627 96.0044C290.467 96.3844 290.097 96.6142 289.717 96.6142Z" fill="#BA9AFF"/>
</g>
</g>
<path d="M312.877 162.634C312.877 162.634 321.447 158.435 321.937 170.535C322.427 182.635 311.496 192.515 306.036 189.495C300.576 186.475 295.987 182.774 295.987 182.774L312.877 162.634Z" fill="#FFCFCB"/>
<defs>
<linearGradient id="paint0_linear" x1="29.9567" y1="36.6485" x2="78.4428" y2="36.0597" gradientUnits="userSpaceOnUse">
<stop stop-color="#FFCFCB"/>
<stop offset="1" stop-color="#D77E8E"/>
</linearGradient>
<linearGradient id="paint1_linear" x1="177.948" y1="190.98" x2="132.378" y2="156.13" gradientUnits="userSpaceOnUse">
<stop stop-color="#FF7A46"/>
<stop offset="1" stop-color="#FF5946"/>
</linearGradient>
<linearGradient id="paint2_linear" x1="218.338" y1="1122.28" x2="241.586" y2="1151.56" gradientUnits="userSpaceOnUse">
<stop stop-color="#FFCFCB"/>
<stop offset="1" stop-color="#D77E8E"/>
</linearGradient>
<linearGradient id="paint3_linear" x1="247.843" y1="1150.49" x2="114.026" y2="1156.62" gradientUnits="userSpaceOnUse">
<stop stop-color="#FF7A46"/>
<stop offset="1" stop-color="#FF5946"/>
</linearGradient>
<linearGradient id="paint4_linear" x1="209.323" y1="806.667" x2="368.42" y2="806.667" gradientUnits="userSpaceOnUse">
<stop stop-color="#0A0652"/>
<stop offset="0.9851" stop-color="#310477"/>
</linearGradient>
<linearGradient id="paint5_linear" x1="368.787" y1="1122.04" x2="396.806" y2="1147.24" gradientUnits="userSpaceOnUse">
<stop stop-color="#FFCFCB"/>
<stop offset="1" stop-color="#D77E8E"/>
</linearGradient>
<linearGradient id="paint6_linear" x1="403.441" y1="1144.18" x2="272.873" y2="1172.43" gradientUnits="userSpaceOnUse">
<stop stop-color="#FF7A46"/>
<stop offset="1" stop-color="#FF5946"/>
</linearGradient>
<linearGradient id="paint7_linear" x1="307.363" y1="812.029" x2="442.957" y2="789.132" gradientUnits="userSpaceOnUse">
<stop stop-color="#0A0652"/>
<stop offset="0.9851" stop-color="#310477"/>
</linearGradient>
<linearGradient id="paint8_linear" x1="265.634" y1="246.752" x2="345.149" y2="561.159" gradientUnits="userSpaceOnUse">
<stop stop-color="#FF7A46"/>
<stop offset="1" stop-color="#FF5946"/>
</linearGradient>
<linearGradient id="paint9_linear" x1="497.594" y1="556.645" x2="488.174" y2="509.08" gradientUnits="userSpaceOnUse">
<stop stop-color="#FFCFCB"/>
<stop offset="1" stop-color="#D77E8E"/>
</linearGradient>
<linearGradient id="paint10_linear" x1="376.541" y1="379.918" x2="416.989" y2="412.74" gradientUnits="userSpaceOnUse">
<stop stop-color="#FF7A46"/>
<stop offset="1" stop-color="#FF5946"/>
</linearGradient>
<linearGradient id="paint11_linear" x1="281.031" y1="262.562" x2="264.94" y2="106.254" gradientUnits="userSpaceOnUse">
<stop stop-color="#FFCFCB"/>
<stop offset="1" stop-color="#D77E8E"/>
</linearGradient>
<linearGradient id="paint12_linear" x1="371.123" y1="240.81" x2="334.024" y2="360.266" gradientUnits="userSpaceOnUse">
<stop stop-color="#934DE6"/>
<stop offset="1" stop-color="#6229CE"/>
</linearGradient>
<linearGradient id="paint13_linear" x1="463.822" y1="222.597" x2="567.527" y2="-54.0246" gradientUnits="userSpaceOnUse">
<stop stop-color="#934DE6"/>
<stop offset="1" stop-color="#6229CE"/>
</linearGradient>
</defs>
</svg>
